<?xml version="1.0" encoding="utf-8"?>
<!-- Generator: Adobe Illustrator 16.0.0, SVG Export Plug-In . SVG Version: 6.00 Build 0)  -->
<!DOCTYPE svg PUBLIC "-//W3C//DTD SVG 1.1//EN" "http://www.w3.org/Graphics/SVG/1.1/DTD/svg11.dtd">
<svg version="1.1" xmlns="http://www.w3.org/2000/svg" xmlns:xlink="http://www.w3.org/1999/xlink" x="0px" y="0px"
	 width="604.47px" height="340.392px" viewBox="0 0 604.47 340.392" enable-background="new 0 0 604.47 340.392"
	 xml:space="preserve">
<g id="line">
	<path fill="none" stroke="#E0B15A" stroke-width="2" stroke-miterlimit="10" d="M441.397,56.983h7.11
		c1.826,0,3.307,1.481,3.307,3.307v6.559"/>
	<path fill="none" stroke="#E0B15A" stroke-width="2" stroke-miterlimit="10" d="M490.397,91.983h7.11
		c1.826,0,3.307,1.481,3.307,3.307v6.559"/>
	<path fill="none" stroke="#E0B15A" stroke-width="2" stroke-miterlimit="10" d="M199.731,35.726V13.699
		c0-1.826,1.48-3.307,3.307-3.307h12.515h253.844h70h12.515c1.826,0,3.307,1.481,3.307,3.307v13.199V40.06v85.958
		c0,1.826-1.48,3.307-3.307,3.307h-12.515"/>
	<path fill="none" stroke="#60619D" stroke-width="2" stroke-miterlimit="10" d="M199.731,308.381v22.026
		c0,1.826,1.48,3.307,3.307,3.307h12.515h253.844h70h12.515c1.826,0,3.307-1.48,3.307-3.307v-7.945v-6.161V287.78
		c0-1.826-1.48-3.307-3.307-3.307h-12.515"/>
	<path fill="none" stroke="#E0B15A" stroke-width="2" stroke-miterlimit="10" d="M199.731,108.392V88.609
		c0-1.826,1.481-3.307,3.308-3.307h13.198h29.654h13.198c1.826,0,3.308-1.48,3.308-3.307V69.481v-10.09c2.762,0,5-2.238,5-5
		c0-2.762-2.238-5-5-5v-39"/>
	<path fill="none" stroke="#60619D" stroke-width="2" stroke-miterlimit="10" d="M199.731,235.474v19.783
		c0,1.826,1.481,3.307,3.308,3.307h13.198h29.654h13.198c1.826,0,3.308,1.48,3.308,3.307v12.515v10.09c2.762,0,5,2.238,5,5
		c0,2.762-2.238,5-5,5v39"/>
	<line fill="none" stroke="#E0B15A" stroke-width="2" stroke-miterlimit="10" x1="255.731" y1="54.392" x2="304.897" y2="54.476"/>
	<line fill="none" stroke="#E0B15A" stroke-width="2" stroke-miterlimit="10" x1="275.46" y1="54.892" x2="275.376" y2="127.392"/>
	<line fill="none" stroke="#E0B15A" stroke-width="2" stroke-miterlimit="10" x1="179.771" y1="73.81" x2="179.688" y2="106.31"/>
	
		<line fill="none" stroke="#E0B15A" stroke-width="2" stroke-miterlimit="10" x1="179.771" y1="145.309" x2="179.688" y2="172.392"/>
	
		<line fill="none" stroke="#60619D" stroke-width="2" stroke-miterlimit="10" x1="179.771" y1="172.399" x2="179.688" y2="199.482"/>
	<line fill="none" stroke="#E0B15A" stroke-width="2" stroke-miterlimit="10" x1="304.897" y1="127.434" x2="256.426" y2="127.35"/>
	<line fill="none" stroke="#E0B15A" stroke-width="2" stroke-miterlimit="10" x1="344.902" y1="54.392" x2="372.647" y2="54.476"/>
	<path fill="none" stroke="#E0B15A" stroke-width="2" stroke-miterlimit="10" d="M353.155,54.642v69.265
		c0,1.826-1.48,3.307-3.307,3.307h-4.946"/>
	<path fill="none" stroke="#E0B15A" stroke-width="2" stroke-miterlimit="10" d="M100.81,172.392V91.713
		c0-1.826,1.48-3.307,3.307-3.307h4.946"/>
	<path fill="none" stroke="#60619D" stroke-width="2" stroke-miterlimit="10" d="M100.81,172.399v80.679
		c0,1.826,1.48,3.307,3.307,3.307h4.946"/>
	<path fill="none" stroke="#E0B15A" stroke-width="2" stroke-miterlimit="10" d="M132.064,126.789H112.37
		c-1.826,0-3.307-1.48-3.307-3.307V97.226V83.795V57.539c0-1.826,1.48-3.307,3.307-3.307h19.694"/>
	<path fill="none" stroke="#60619D" stroke-width="2" stroke-miterlimit="10" d="M441.397,218.983h7.11
		c1.826,0,3.307,1.481,3.307,3.307v6.559"/>
	<path fill="none" stroke="#60619D" stroke-width="2" stroke-miterlimit="10" d="M490.397,253.983h7.11
		c1.826,0,3.307,1.481,3.307,3.307v6.559"/>
	
		<line fill="none" stroke="#60619D" stroke-width="2" stroke-miterlimit="10" x1="255.731" y1="216.392" x2="304.897" y2="216.476"/>
	<line fill="none" stroke="#60619D" stroke-width="2" stroke-miterlimit="10" x1="275.46" y1="216.892" x2="275.376" y2="289.392"/>
	<line fill="none" stroke="#60619D" stroke-width="2" stroke-miterlimit="10" x1="179.771" y1="235.81" x2="179.688" y2="268.31"/>
	<line fill="none" stroke="#60619D" stroke-width="2" stroke-miterlimit="10" x1="304.897" y1="289.434" x2="256.426" y2="289.35"/>
	
		<line fill="none" stroke="#60619D" stroke-width="2" stroke-miterlimit="10" x1="344.902" y1="216.392" x2="372.647" y2="216.476"/>
	<path fill="none" stroke="#60619D" stroke-width="2" stroke-miterlimit="10" d="M353.155,216.642v69.265
		c0,1.826-1.48,3.307-3.307,3.307h-4.946"/>
	<path fill="none" stroke="#60619D" stroke-width="2" stroke-miterlimit="10" d="M132.064,288.789H112.37
		c-1.826,0-3.307-1.48-3.307-3.307v-26.256v-13.431v-26.256c0-1.826,1.48-3.307,3.307-3.307h19.694"/>
</g>
<g id="symbol">
	<g>
		<g>
			<circle fill="none" stroke="#E0B15A" stroke-miterlimit="10" cx="155.814" cy="54.642" r="8.667"/>
			<line fill="none" stroke="#E0B15A" stroke-miterlimit="10" x1="143.897" y1="57.392" x2="143.897" y2="52.392"/>
			<line fill="none" stroke="#E0B15A" stroke-miterlimit="10" x1="167.897" y1="52.392" x2="167.897" y2="57.392"/>
			<polyline fill="none" stroke="#E0B15A" stroke-miterlimit="10" points="143.397,54.892 150.647,54.892 153.314,51.017 
				159.814,57.955 161.981,54.892 167.397,54.892 			"/>
		</g>
		<g>
			<circle fill="none" stroke="#E0B15A" stroke-miterlimit="10" cx="182.814" cy="54.642" r="8.667"/>
			<line fill="none" stroke="#E0B15A" stroke-miterlimit="10" x1="170.897" y1="57.392" x2="170.897" y2="52.392"/>
			<line fill="none" stroke="#E0B15A" stroke-miterlimit="10" x1="194.897" y1="52.392" x2="194.897" y2="57.392"/>
			<polyline fill="none" stroke="#E0B15A" stroke-miterlimit="10" points="170.397,54.892 177.647,54.892 180.314,51.017 
				186.814,57.955 188.981,54.892 194.397,54.892 			"/>
		</g>
		<g>
			<circle fill="none" stroke="#E0B15A" stroke-miterlimit="10" cx="209.814" cy="54.642" r="8.667"/>
			<line fill="none" stroke="#E0B15A" stroke-miterlimit="10" x1="197.897" y1="57.392" x2="197.897" y2="52.392"/>
			<line fill="none" stroke="#E0B15A" stroke-miterlimit="10" x1="221.897" y1="52.392" x2="221.897" y2="57.392"/>
			<polyline fill="none" stroke="#E0B15A" stroke-miterlimit="10" points="197.397,54.892 204.647,54.892 207.314,51.017 
				213.814,57.955 215.981,54.892 221.397,54.892 			"/>
		</g>
		<g>
			<circle fill="none" stroke="#E0B15A" stroke-miterlimit="10" cx="236.814" cy="54.642" r="8.667"/>
			<line fill="none" stroke="#E0B15A" stroke-miterlimit="10" x1="224.897" y1="57.392" x2="224.897" y2="52.392"/>
			<line fill="none" stroke="#E0B15A" stroke-miterlimit="10" x1="248.897" y1="52.392" x2="248.897" y2="57.392"/>
			<polyline fill="none" stroke="#E0B15A" stroke-miterlimit="10" points="224.397,54.892 231.647,54.892 234.314,51.017 
				240.814,57.955 242.981,54.892 248.397,54.892 			"/>
		</g>
	</g>
	<g>
		<circle fill="none" stroke="#E0B15A" stroke-miterlimit="10" cx="324.814" cy="54.642" r="8.667"/>
		<line fill="none" stroke="#E0B15A" stroke-miterlimit="10" x1="312.897" y1="57.392" x2="312.897" y2="52.392"/>
		<line fill="none" stroke="#E0B15A" stroke-miterlimit="10" x1="336.897" y1="52.392" x2="336.897" y2="57.392"/>
		<polyline fill="none" stroke="#E0B15A" stroke-miterlimit="10" points="312.397,54.892 319.647,54.892 322.314,51.017 
			328.814,57.955 330.981,54.892 336.397,54.892 		"/>
	</g>
	<path fill="#E0B15A" d="M238.02,74.392h-84.246c-10.685,0-19.377-8.692-19.377-19.376v-1.247c0-10.684,8.692-19.376,19.377-19.376
		h84.246c10.685,0,19.377,8.692,19.377,19.376v1.247C257.397,65.7,248.705,74.392,238.02,74.392z M153.774,38.392
		c-8.479,0-15.377,6.898-15.377,15.376v1.247c0,8.479,6.898,15.376,15.377,15.376h84.246c8.479,0,15.377-6.898,15.377-15.376v-1.247
		c0-8.479-6.898-15.376-15.377-15.376H153.774z"/>
	<path fill="#E0B15A" d="M324.981,74.559c-11.074,0-20.084-9.009-20.084-20.083s9.01-20.083,20.084-20.083
		s20.083,9.009,20.083,20.083S336.055,74.559,324.981,74.559z M324.981,38.392c-8.869,0-16.084,7.215-16.084,16.083
		s7.215,16.083,16.084,16.083c8.868,0,16.083-7.215,16.083-16.083S333.849,38.392,324.981,38.392z"/>
	<g>
		<circle fill="none" stroke="#E0B15A" stroke-miterlimit="10" cx="324.814" cy="126.642" r="8.667"/>
		<line fill="none" stroke="#E0B15A" stroke-miterlimit="10" x1="312.897" y1="129.392" x2="312.897" y2="124.392"/>
		<line fill="none" stroke="#E0B15A" stroke-miterlimit="10" x1="336.897" y1="124.392" x2="336.897" y2="129.392"/>
		<polyline fill="none" stroke="#E0B15A" stroke-miterlimit="10" points="312.397,126.892 319.647,126.892 322.314,123.017 
			328.814,129.955 330.981,126.892 336.397,126.892 		"/>
	</g>
	<path fill="#E0B15A" d="M324.981,146.559c-11.074,0-20.084-9.009-20.084-20.083s9.01-20.083,20.084-20.083
		s20.083,9.009,20.083,20.083S336.055,146.559,324.981,146.559z M324.981,110.392c-8.869,0-16.084,7.215-16.084,16.083
		s7.215,16.083,16.084,16.083c8.868,0,16.083-7.215,16.083-16.083S333.849,110.392,324.981,110.392z"/>
	<g>
		<g>
			<circle fill="none" stroke="#E0B15A" stroke-miterlimit="10" cx="155.814" cy="126.642" r="8.667"/>
			<line fill="none" stroke="#E0B15A" stroke-miterlimit="10" x1="143.897" y1="129.392" x2="143.897" y2="124.392"/>
			<line fill="none" stroke="#E0B15A" stroke-miterlimit="10" x1="167.897" y1="124.392" x2="167.897" y2="129.392"/>
			<polyline fill="none" stroke="#E0B15A" stroke-miterlimit="10" points="143.397,126.892 150.647,126.892 153.314,123.017 
				159.814,129.955 161.981,126.892 167.397,126.892 			"/>
		</g>
		<g>
			<circle fill="none" stroke="#E0B15A" stroke-miterlimit="10" cx="182.814" cy="126.642" r="8.667"/>
			<line fill="none" stroke="#E0B15A" stroke-miterlimit="10" x1="170.897" y1="129.392" x2="170.897" y2="124.392"/>
			<line fill="none" stroke="#E0B15A" stroke-miterlimit="10" x1="194.897" y1="124.392" x2="194.897" y2="129.392"/>
			<polyline fill="none" stroke="#E0B15A" stroke-miterlimit="10" points="170.397,126.892 177.647,126.892 180.314,123.017 
				186.814,129.955 188.981,126.892 194.397,126.892 			"/>
		</g>
		<g>
			<circle fill="none" stroke="#E0B15A" stroke-miterlimit="10" cx="209.814" cy="126.642" r="8.667"/>
			<line fill="none" stroke="#E0B15A" stroke-miterlimit="10" x1="197.897" y1="129.392" x2="197.897" y2="124.392"/>
			<line fill="none" stroke="#E0B15A" stroke-miterlimit="10" x1="221.897" y1="124.392" x2="221.897" y2="129.392"/>
			<polyline fill="none" stroke="#E0B15A" stroke-miterlimit="10" points="197.397,126.892 204.647,126.892 207.314,123.017 
				213.814,129.955 215.981,126.892 221.397,126.892 			"/>
		</g>
		<g>
			<circle fill="none" stroke="#E0B15A" stroke-miterlimit="10" cx="236.814" cy="126.642" r="8.667"/>
			<line fill="none" stroke="#E0B15A" stroke-miterlimit="10" x1="224.897" y1="129.392" x2="224.897" y2="124.392"/>
			<line fill="none" stroke="#E0B15A" stroke-miterlimit="10" x1="248.897" y1="124.392" x2="248.897" y2="129.392"/>
			<polyline fill="none" stroke="#E0B15A" stroke-miterlimit="10" points="224.397,126.892 231.647,126.892 234.314,123.017 
				240.814,129.955 242.981,126.892 248.397,126.892 			"/>
		</g>
	</g>
	<path fill="#E0B15A" d="M238.02,146.392h-84.246c-10.685,0-19.377-8.692-19.377-19.376v-1.247c0-10.684,8.692-19.376,19.377-19.376
		h84.246c10.685,0,19.377,8.692,19.377,19.376v1.247C257.397,137.7,248.705,146.392,238.02,146.392z M153.774,110.392
		c-8.479,0-15.377,6.898-15.377,15.376v1.247c0,8.479,6.898,15.376,15.377,15.376h84.246c8.479,0,15.377-6.898,15.377-15.376v-1.247
		c0-8.479-6.898-15.376-15.377-15.376H153.774z"/>
	<path fill="#E0B15A" d="M427.06,73.392h-40.326c-8.457,0-15.337-6.88-15.337-15.336v-1.327c0-8.457,6.88-15.336,15.337-15.336
		h40.326c8.457,0,15.337,6.88,15.337,15.336v1.327C442.397,66.512,435.517,73.392,427.06,73.392z M386.734,45.392
		c-6.251,0-11.337,5.085-11.337,11.336v1.327c0,6.251,5.086,11.336,11.337,11.336h40.326c6.251,0,11.337-5.085,11.337-11.336v-1.327
		c0-6.251-5.086-11.336-11.337-11.336H386.734z"/>
	<g>
		<polygon fill="#E0B15A" points="395.605,78.434 395.605,73.392 388.855,73.392 388.855,78.434 386.869,78.434 392.231,83.795 
			397.592,78.434 		"/>
		<polygon fill="#E0B15A" points="418.19,36.351 418.19,41.392 424.94,41.392 424.94,36.351 426.926,36.351 421.564,30.989 
			416.203,36.351 		"/>
	</g>
	<polygon fill="#E0B15A" points="455.231,66.279 455.231,66.279 448.481,66.279 448.481,66.279 446.495,66.279 451.857,71.641 
		457.218,66.279 	"/>
	<polygon fill="#E0B15A" points="203.106,25.545 203.106,25.545 196.356,25.545 196.356,25.545 194.37,25.545 199.732,30.907 
		205.093,25.545 	"/>
	<polygon fill="#60619D" points="203.106,318.562 203.106,318.562 196.356,318.562 196.356,318.562 194.37,318.562 199.732,313.2 
		205.093,318.562 	"/>
	<polygon fill="#E0B15A" points="281.163,68.264 281.163,68.264 291.411,68.264 291.411,68.264 294.426,68.264 286.287,55.569 
		278.147,68.264 	"/>
	<polygon fill="#E0B15A" points="550.094,121.087 550.094,121.087 560.342,121.087 560.342,121.087 563.358,121.087 
		555.218,108.392 547.079,121.087 	"/>
	<polygon fill="#E0B15A" points="281.163,141.657 281.163,141.657 291.411,141.657 291.411,141.657 294.426,141.657 
		286.287,128.961 278.147,141.657 	"/>
	<polygon fill="#E0B15A" points="129.035,50.858 129.035,50.858 129.035,57.608 129.035,57.608 129.035,59.594 134.397,54.232 
		129.035,48.871 	"/>
	<polygon fill="#E0B15A" points="129.035,130.164 129.035,130.164 129.035,123.414 129.035,123.414 129.035,121.427 134.397,126.79 
		129.035,132.151 	"/>
	<polygon fill="#E0B15A" points="203.106,98.226 203.106,98.226 196.356,98.226 196.356,98.226 194.37,98.226 199.732,103.588 
		205.093,98.226 	"/>
	<polygon fill="#60619D" points="203.106,245.64 203.106,245.64 196.356,245.64 196.356,245.64 194.37,245.64 199.732,240.278 
		205.093,245.64 	"/>
	<polygon fill="#E0B15A" points="296.676,51.112 296.676,51.112 296.676,57.862 296.676,57.862 296.676,59.848 302.039,54.485 
		296.676,49.124 	"/>
	<polygon fill="#E0B15A" points="296.676,124.06 296.676,124.06 296.676,130.81 296.676,130.81 296.676,132.796 302.039,127.433 
		296.676,122.072 	"/>
	<polygon fill="#E0B15A" points="364.426,51.112 364.426,51.112 364.426,57.862 364.426,57.862 364.426,59.848 369.789,54.485 
		364.426,49.124 	"/>
	<path fill="#E0B15A" d="M476.06,108.392h-40.326c-8.457,0-15.337-6.88-15.337-15.336v-1.327c0-8.457,6.88-15.336,15.337-15.336
		h40.326c8.457,0,15.337,6.88,15.337,15.336v1.327C491.397,101.512,484.517,108.392,476.06,108.392z M435.734,80.392
		c-6.251,0-11.337,5.085-11.337,11.336v1.327c0,6.251,5.086,11.336,11.337,11.336h40.326c6.251,0,11.337-5.085,11.337-11.336v-1.327
		c0-6.251-5.086-11.336-11.337-11.336H435.734z"/>
	<g>
		<polygon fill="#E0B15A" points="444.605,113.434 444.605,108.392 437.855,108.392 437.855,113.434 435.869,113.434 
			441.231,118.795 446.592,113.434 		"/>
	</g>
	<polygon fill="#E0B15A" points="504.231,101.279 504.231,101.279 497.481,101.279 497.481,101.279 495.495,101.279 
		500.857,106.641 506.218,101.279 	"/>
	<path fill="#E0B15A" d="M525.06,143.392h-40.326c-8.457,0-15.337-6.88-15.337-15.336v-1.327c0-8.457,6.88-15.336,15.337-15.336
		h40.326c8.457,0,15.337,6.88,15.337,15.336v1.327C540.397,136.512,533.517,143.392,525.06,143.392z M484.734,115.392
		c-6.251,0-11.337,5.085-11.337,11.336v1.327c0,6.251,5.086,11.336,11.337,11.336h40.326c6.251,0,11.337-5.085,11.337-11.336v-1.327
		c0-6.251-5.086-11.336-11.337-11.336H484.734z"/>
	<g>
		<polygon fill="#E0B15A" points="493.605,148.434 493.605,143.392 486.855,143.392 486.855,148.434 484.869,148.434 
			490.231,153.795 495.592,148.434 		"/>
		<polygon fill="#E0B15A" points="516.19,106.351 516.19,111.392 522.94,111.392 522.94,106.351 524.926,106.351 519.564,100.989 
			514.203,106.351 		"/>
	</g>
	<path fill="#E0B15A" d="M120.5,42.463c-2.649,0-4.796,2.147-4.796,4.796c0,1.2,0.456,2.284,1.185,3.125l3.612,7.187l3.613-7.188
		c0.728-0.841,1.183-1.924,1.183-3.123C125.297,44.611,123.15,42.463,120.5,42.463z M120.5,50.092c-1.563,0-2.832-1.268-2.832-2.833
		c0-1.564,1.269-2.832,2.832-2.832c1.565,0,2.833,1.268,2.833,2.832C123.334,48.824,122.066,50.092,120.5,50.092z"/>
	<path fill="#E0B15A" d="M120.5,115.463c-2.649,0-4.796,2.147-4.796,4.796c0,1.2,0.456,2.284,1.185,3.125l3.612,7.187l3.613-7.188
		c0.728-0.841,1.183-1.924,1.183-3.123C125.297,117.61,123.15,115.463,120.5,115.463z M120.5,123.092
		c-1.563,0-2.832-1.268-2.832-2.833c0-1.564,1.269-2.832,2.832-2.832c1.565,0,2.833,1.268,2.833,2.832
		C123.334,121.824,122.066,123.092,120.5,123.092z"/>
	<g>
		<g>
			<circle fill="none" stroke="#60619D" stroke-miterlimit="10" cx="155.814" cy="216.642" r="8.667"/>
			<line fill="none" stroke="#60619D" stroke-miterlimit="10" x1="143.897" y1="219.392" x2="143.897" y2="214.392"/>
			<line fill="none" stroke="#60619D" stroke-miterlimit="10" x1="167.897" y1="214.392" x2="167.897" y2="219.392"/>
			<polyline fill="none" stroke="#60619D" stroke-miterlimit="10" points="143.397,216.892 150.647,216.892 153.314,213.017 
				159.814,219.955 161.981,216.892 167.397,216.892 			"/>
		</g>
		<g>
			<circle fill="none" stroke="#60619D" stroke-miterlimit="10" cx="182.814" cy="216.642" r="8.667"/>
			<line fill="none" stroke="#60619D" stroke-miterlimit="10" x1="170.897" y1="219.392" x2="170.897" y2="214.392"/>
			<line fill="none" stroke="#60619D" stroke-miterlimit="10" x1="194.897" y1="214.392" x2="194.897" y2="219.392"/>
			<polyline fill="none" stroke="#60619D" stroke-miterlimit="10" points="170.397,216.892 177.647,216.892 180.314,213.017 
				186.814,219.955 188.981,216.892 194.397,216.892 			"/>
		</g>
		<g>
			<circle fill="none" stroke="#60619D" stroke-miterlimit="10" cx="209.814" cy="216.642" r="8.667"/>
			<line fill="none" stroke="#60619D" stroke-miterlimit="10" x1="197.897" y1="219.392" x2="197.897" y2="214.392"/>
			<line fill="none" stroke="#60619D" stroke-miterlimit="10" x1="221.897" y1="214.392" x2="221.897" y2="219.392"/>
			<polyline fill="none" stroke="#60619D" stroke-miterlimit="10" points="197.397,216.892 204.647,216.892 207.314,213.017 
				213.814,219.955 215.981,216.892 221.397,216.892 			"/>
		</g>
		<g>
			<circle fill="none" stroke="#60619D" stroke-miterlimit="10" cx="236.814" cy="216.642" r="8.667"/>
			<line fill="none" stroke="#60619D" stroke-miterlimit="10" x1="224.897" y1="219.392" x2="224.897" y2="214.392"/>
			<line fill="none" stroke="#60619D" stroke-miterlimit="10" x1="248.897" y1="214.392" x2="248.897" y2="219.392"/>
			<polyline fill="none" stroke="#60619D" stroke-miterlimit="10" points="224.397,216.892 231.647,216.892 234.314,213.017 
				240.814,219.955 242.981,216.892 248.397,216.892 			"/>
		</g>
	</g>
	<g>
		<circle fill="none" stroke="#60619D" stroke-miterlimit="10" cx="324.814" cy="216.642" r="8.667"/>
		<line fill="none" stroke="#60619D" stroke-miterlimit="10" x1="312.897" y1="219.392" x2="312.897" y2="214.392"/>
		<line fill="none" stroke="#60619D" stroke-miterlimit="10" x1="336.897" y1="214.392" x2="336.897" y2="219.392"/>
		<polyline fill="none" stroke="#60619D" stroke-miterlimit="10" points="312.397,216.892 319.647,216.892 322.314,213.017 
			328.814,219.955 330.981,216.892 336.397,216.892 		"/>
	</g>
	<path fill="#60619D" d="M238.02,236.392h-84.246c-10.685,0-19.377-8.692-19.377-19.376v-1.247c0-10.684,8.692-19.376,19.377-19.376
		h84.246c10.685,0,19.377,8.692,19.377,19.376v1.247C257.397,227.7,248.705,236.392,238.02,236.392z M153.774,200.392
		c-8.479,0-15.377,6.898-15.377,15.376v1.247c0,8.479,6.898,15.376,15.377,15.376h84.246c8.479,0,15.377-6.898,15.377-15.376v-1.247
		c0-8.479-6.898-15.376-15.377-15.376H153.774z"/>
	<path fill="#60619D" d="M324.981,236.559c-11.074,0-20.084-9.009-20.084-20.083s9.01-20.083,20.084-20.083
		s20.083,9.009,20.083,20.083S336.055,236.559,324.981,236.559z M324.981,200.392c-8.869,0-16.084,7.215-16.084,16.083
		s7.215,16.083,16.084,16.083c8.868,0,16.083-7.215,16.083-16.083S333.849,200.392,324.981,200.392z"/>
	<g>
		<circle fill="none" stroke="#60619D" stroke-miterlimit="10" cx="324.814" cy="288.642" r="8.667"/>
		<line fill="none" stroke="#60619D" stroke-miterlimit="10" x1="312.897" y1="291.392" x2="312.897" y2="286.392"/>
		<line fill="none" stroke="#60619D" stroke-miterlimit="10" x1="336.897" y1="286.392" x2="336.897" y2="291.392"/>
		<polyline fill="none" stroke="#60619D" stroke-miterlimit="10" points="312.397,288.892 319.647,288.892 322.314,285.017 
			328.814,291.955 330.981,288.892 336.397,288.892 		"/>
	</g>
	<path fill="#60619D" d="M324.981,308.559c-11.074,0-20.084-9.009-20.084-20.083s9.01-20.083,20.084-20.083
		s20.083,9.009,20.083,20.083S336.055,308.559,324.981,308.559z M324.981,272.392c-8.869,0-16.084,7.215-16.084,16.083
		s7.215,16.083,16.084,16.083c8.868,0,16.083-7.215,16.083-16.083S333.849,272.392,324.981,272.392z"/>
	<g>
		<g>
			<circle fill="none" stroke="#60619D" stroke-miterlimit="10" cx="155.814" cy="288.642" r="8.667"/>
			<line fill="none" stroke="#60619D" stroke-miterlimit="10" x1="143.897" y1="291.392" x2="143.897" y2="286.392"/>
			<line fill="none" stroke="#60619D" stroke-miterlimit="10" x1="167.897" y1="286.392" x2="167.897" y2="291.392"/>
			<polyline fill="none" stroke="#60619D" stroke-miterlimit="10" points="143.397,288.892 150.647,288.892 153.314,285.017 
				159.814,291.955 161.981,288.892 167.397,288.892 			"/>
		</g>
		<g>
			<circle fill="none" stroke="#60619D" stroke-miterlimit="10" cx="182.814" cy="288.642" r="8.667"/>
			<line fill="none" stroke="#60619D" stroke-miterlimit="10" x1="170.897" y1="291.392" x2="170.897" y2="286.392"/>
			<line fill="none" stroke="#60619D" stroke-miterlimit="10" x1="194.897" y1="286.392" x2="194.897" y2="291.392"/>
			<polyline fill="none" stroke="#60619D" stroke-miterlimit="10" points="170.397,288.892 177.647,288.892 180.314,285.017 
				186.814,291.955 188.981,288.892 194.397,288.892 			"/>
		</g>
		<g>
			<circle fill="none" stroke="#60619D" stroke-miterlimit="10" cx="209.814" cy="288.642" r="8.667"/>
			<line fill="none" stroke="#60619D" stroke-miterlimit="10" x1="197.897" y1="291.392" x2="197.897" y2="286.392"/>
			<line fill="none" stroke="#60619D" stroke-miterlimit="10" x1="221.897" y1="286.392" x2="221.897" y2="291.392"/>
			<polyline fill="none" stroke="#60619D" stroke-miterlimit="10" points="197.397,288.892 204.647,288.892 207.314,285.017 
				213.814,291.955 215.981,288.892 221.397,288.892 			"/>
		</g>
		<g>
			<circle fill="none" stroke="#60619D" stroke-miterlimit="10" cx="236.814" cy="288.642" r="8.667"/>
			<line fill="none" stroke="#60619D" stroke-miterlimit="10" x1="224.897" y1="291.392" x2="224.897" y2="286.392"/>
			<line fill="none" stroke="#60619D" stroke-miterlimit="10" x1="248.897" y1="286.392" x2="248.897" y2="291.392"/>
			<polyline fill="none" stroke="#60619D" stroke-miterlimit="10" points="224.397,288.892 231.647,288.892 234.314,285.017 
				240.814,291.955 242.981,288.892 248.397,288.892 			"/>
		</g>
	</g>
	<path fill="#60619D" d="M238.02,308.392h-84.246c-10.685,0-19.377-8.692-19.377-19.376v-1.247c0-10.684,8.692-19.376,19.377-19.376
		h84.246c10.685,0,19.377,8.692,19.377,19.376v1.247C257.397,299.7,248.705,308.392,238.02,308.392z M153.774,272.392
		c-8.479,0-15.377,6.898-15.377,15.376v1.247c0,8.479,6.898,15.376,15.377,15.376h84.246c8.479,0,15.377-6.898,15.377-15.376v-1.247
		c0-8.479-6.898-15.376-15.377-15.376H153.774z"/>
	<path fill="#60619D" d="M427.06,235.392h-40.326c-8.457,0-15.337-6.88-15.337-15.336v-1.327c0-8.457,6.88-15.336,15.337-15.336
		h40.326c8.457,0,15.337,6.88,15.337,15.336v1.327C442.397,228.512,435.517,235.392,427.06,235.392z M386.734,207.392
		c-6.251,0-11.337,5.085-11.337,11.336v1.327c0,6.251,5.086,11.336,11.337,11.336h40.326c6.251,0,11.337-5.085,11.337-11.336v-1.327
		c0-6.251-5.086-11.336-11.337-11.336H386.734z"/>
	<g>
		<g>
			<polygon fill="#60619D" points="395.605,240.434 395.605,235.392 388.855,235.392 388.855,240.434 386.869,240.434 
				392.231,245.795 397.592,240.434 			"/>
			<polygon fill="#60619D" points="418.19,198.351 418.19,203.392 424.94,203.392 424.94,198.351 426.926,198.351 421.564,192.989 
				416.203,198.351 			"/>
		</g>
	</g>
	<polygon fill="#60619D" points="455.231,228.279 455.231,228.279 448.481,228.279 448.481,228.279 446.495,228.279 
		451.857,233.641 457.218,228.279 	"/>
	<polygon fill="#60619D" points="281.163,230.264 281.163,230.264 291.411,230.264 291.411,230.264 294.426,230.264 
		286.287,217.569 278.147,230.264 	"/>
	<polygon fill="#60619D" points="550.094,306.846 550.094,306.846 560.342,306.846 560.342,306.846 563.358,306.846 
		555.218,294.151 547.079,306.846 	"/>
	<polygon fill="#60619D" points="281.163,303.657 281.163,303.657 291.411,303.657 291.411,303.657 294.426,303.657 
		286.287,290.961 278.147,303.657 	"/>
	<polygon fill="#60619D" points="129.035,212.858 129.035,212.858 129.035,219.608 129.035,219.608 129.035,221.594 
		134.397,216.232 129.035,210.871 	"/>
	<polygon fill="#60619D" points="129.035,292.164 129.035,292.164 129.035,285.414 129.035,285.414 129.035,283.427 134.397,288.79 
		129.035,294.151 	"/>
	<polygon fill="#60619D" points="296.676,213.112 296.676,213.112 296.676,219.862 296.676,219.862 296.676,221.848 
		302.039,216.485 296.676,211.124 	"/>
	<polygon fill="#60619D" points="296.676,286.06 296.676,286.06 296.676,292.81 296.676,292.81 296.676,294.796 302.039,289.433 
		296.676,284.072 	"/>
	<polygon fill="#60619D" points="364.426,213.112 364.426,213.112 364.426,219.862 364.426,219.862 364.426,221.848 
		369.789,216.485 364.426,211.124 	"/>
	<path fill="#60619D" d="M476.06,270.392h-40.326c-8.457,0-15.337-6.88-15.337-15.336v-1.327c0-8.457,6.88-15.336,15.337-15.336
		h40.326c8.457,0,15.337,6.88,15.337,15.336v1.327C491.397,263.512,484.517,270.392,476.06,270.392z M435.734,242.392
		c-6.251,0-11.337,5.085-11.337,11.336v1.327c0,6.251,5.086,11.336,11.337,11.336h40.326c6.251,0,11.337-5.085,11.337-11.336v-1.327
		c0-6.251-5.086-11.336-11.337-11.336H435.734z"/>
	<g>
		<g>
			<polygon fill="#60619D" points="444.605,275.434 444.605,270.392 437.855,270.392 437.855,275.434 435.869,275.434 
				441.231,280.795 446.592,275.434 			"/>
		</g>
	</g>
	<polygon fill="#60619D" points="504.231,263.279 504.231,263.279 497.481,263.279 497.481,263.279 495.495,263.279 
		500.857,268.641 506.218,263.279 	"/>
	<path fill="#60619D" d="M525.06,305.392h-40.326c-8.457,0-15.337-6.88-15.337-15.336v-1.327c0-8.457,6.88-15.336,15.337-15.336
		h40.326c8.457,0,15.337,6.88,15.337,15.336v1.327C540.397,298.512,533.517,305.392,525.06,305.392z M484.734,277.392
		c-6.251,0-11.337,5.085-11.337,11.336v1.327c0,6.251,5.086,11.336,11.337,11.336h40.326c6.251,0,11.337-5.085,11.337-11.336v-1.327
		c0-6.251-5.086-11.336-11.337-11.336H484.734z"/>
	<g>
		<g>
			<polygon fill="#60619D" points="493.605,310.434 493.605,305.392 486.855,305.392 486.855,310.434 484.869,310.434 
				490.231,315.795 495.592,310.434 			"/>
			<polygon fill="#60619D" points="516.19,268.351 516.19,273.392 522.94,273.392 522.94,268.351 524.926,268.351 519.564,262.989 
				514.203,268.351 			"/>
		</g>
	</g>
	<path fill="#60619D" d="M120.5,204.463c-2.649,0-4.796,2.147-4.796,4.796c0,1.2,0.456,2.284,1.185,3.125l3.612,7.187l3.613-7.188
		c0.728-0.841,1.183-1.924,1.183-3.123C125.297,206.611,123.15,204.463,120.5,204.463z M120.5,212.092
		c-1.563,0-2.832-1.268-2.832-2.833c0-1.564,1.269-2.832,2.832-2.832c1.565,0,2.833,1.268,2.833,2.832
		C123.334,210.824,122.066,212.092,120.5,212.092z"/>
	<path fill="#60619D" d="M120.5,277.463c-2.649,0-4.796,2.147-4.796,4.796c0,1.2,0.456,2.284,1.185,3.125l3.612,7.187l3.613-7.188
		c0.728-0.841,1.183-1.924,1.183-3.123C125.297,279.61,123.15,277.463,120.5,277.463z M120.5,285.092
		c-1.563,0-2.832-1.268-2.832-2.833c0-1.564,1.269-2.832,2.832-2.832c1.565,0,2.833,1.268,2.833,2.832
		C123.334,283.824,122.066,285.092,120.5,285.092z"/>
</g>
<g id="text">
	<g>
		<path d="M387.276,52.71h1.667l1.871,5.553c0.168,0.492,0.312,1.248,0.323,1.248h0.024c0.012,0,0.156-0.756,0.323-1.248
			l1.884-5.553h1.654l-3.105,8.515h-1.535L387.276,52.71z"/>
		<path d="M398.531,60.47c0-3.07,3.981-3.562,3.981-5.253c0-0.744-0.575-1.188-1.295-1.188c-0.995,0-1.535,1.008-1.535,1.008
			l-1.151-0.768c0,0,0.779-1.703,2.818-1.703c1.499,0,2.771,0.912,2.771,2.519c0,2.734-3.813,3.202-3.85,4.81h3.981v1.331h-5.648
			C398.567,60.95,398.531,60.71,398.531,60.47z"/>
		<path d="M405.491,60.47c0-3.07,3.981-3.562,3.981-5.253c0-0.744-0.575-1.188-1.295-1.188c-0.995,0-1.535,1.008-1.535,1.008
			l-1.151-0.768c0,0,0.779-1.703,2.818-1.703c1.499,0,2.771,0.912,2.771,2.519c0,2.734-3.813,3.202-3.85,4.81h3.981v1.331h-5.648
			C405.527,60.95,405.491,60.71,405.491,60.47z"/>
		<path d="M412.535,56.956c0-2.447,0.756-4.39,3.082-4.39c2.327,0,3.095,1.943,3.095,4.39c0,2.446-0.768,4.414-3.095,4.414
			C413.291,61.37,412.535,59.402,412.535,56.956z M417.116,56.956c0-1.655-0.335-2.962-1.499-2.962
			c-1.163,0-1.499,1.307-1.499,2.962c0,1.679,0.336,2.998,1.499,2.998C416.781,59.954,417.116,58.635,417.116,56.956z"/>
		<path d="M424.712,59.043h-2.986l-0.72,2.183h-1.596l2.999-8.515h1.619l2.998,8.515h-1.596L424.712,59.043z M423.212,54.186
			c0,0-0.191,0.839-0.359,1.319l-0.756,2.279h2.231l-0.756-2.279c-0.156-0.48-0.336-1.319-0.336-1.319H423.212z"/>
	</g>
	<g>
		<path d="M386.344,89.587c0.1,0.369,0.108,0.675,0.117,0.675h0.019c0,0,0.026-0.315,0.107-0.675l1.054-4.42h1.197l-1.647,6.392
			h-1.342l-0.981-3.781c-0.107-0.414-0.162-0.837-0.162-0.837h-0.018c0,0-0.054,0.423-0.162,0.837l-0.981,3.781h-1.341l-1.603-6.392
			h1.197l1.008,4.42c0.081,0.36,0.108,0.675,0.108,0.675h0.018c0.01,0,0.019-0.306,0.117-0.675l1.152-4.42h1.009L386.344,89.587z"/>
		<path d="M391.897,88.678h0.153v-0.063c0-0.603-0.378-0.81-0.883-0.81c-0.657,0-1.26,0.441-1.26,0.441l-0.433-0.819
			c0,0,0.711-0.567,1.801-0.567c1.206,0,1.908,0.666,1.908,1.827v2.872h-1.053v-0.378c0-0.18,0.018-0.324,0.018-0.324h-0.018
			c0.009,0-0.352,0.81-1.396,0.81c-0.819,0-1.558-0.513-1.558-1.431C389.178,88.777,391.15,88.678,391.897,88.678z M391.024,90.776
			c0.603,0,1.035-0.648,1.035-1.207v-0.108h-0.198c-0.585,0-1.53,0.081-1.53,0.72C390.331,90.488,390.555,90.776,391.024,90.776z"/>
		<path d="M394.542,87.949h-0.594v-0.91h0.621v-1.323h1.116v1.323h1.044v0.91h-1.044v1.782c0,0.756,0.594,0.864,0.909,0.864
			c0.126,0,0.207-0.018,0.207-0.018v1c0,0-0.135,0.027-0.352,0.027c-0.639,0-1.908-0.189-1.908-1.729V87.949z"/>
		<path d="M399.745,86.86c1.323,0,2.035,0.963,2.035,2.179c0,0.135-0.027,0.441-0.027,0.441h-3.169
			c0.072,0.801,0.693,1.215,1.377,1.215c0.738,0,1.323-0.504,1.323-0.504l0.441,0.819c0,0-0.702,0.657-1.846,0.657
			c-1.521,0-2.467-1.098-2.467-2.404C397.413,87.85,398.376,86.86,399.745,86.86z M400.627,88.696
			c-0.019-0.621-0.405-0.955-0.91-0.955c-0.585,0-0.99,0.36-1.098,0.955H400.627z"/>
		<path d="M402.722,86.968h1.099v0.792c0,0.171-0.018,0.324-0.018,0.324h0.018c0.207-0.657,0.756-1.179,1.458-1.179
			c0.108,0,0.207,0.018,0.207,0.018v1.125c0,0-0.116-0.018-0.27-0.018c-0.486,0-1.035,0.279-1.251,0.963
			c-0.072,0.225-0.1,0.477-0.1,0.748v1.818h-1.144V86.968z"/>
	</g>
	<g>
		<path d="M306.239,77.403h1.161v2.71h2.926v-2.71h1.161v6.392h-1.161v-2.683H307.4v2.683h-1.161V77.403z"/>
		<path d="M314.438,80.554l-1.908-3.151h1.323l0.873,1.567c0.207,0.369,0.405,0.783,0.405,0.783h0.018c0,0,0.181-0.405,0.388-0.783
			l0.891-1.567h1.333l-1.927,3.151l1.999,3.241h-1.306l-0.99-1.72c-0.207-0.369-0.396-0.756-0.396-0.756h-0.018
			c0,0-0.181,0.387-0.396,0.756l-0.981,1.72h-1.296L314.438,80.554z"/>
		<path d="M320.629,83.228c0-2.305,2.989-2.674,2.989-3.943c0-0.558-0.433-0.891-0.973-0.891c-0.747,0-1.152,0.756-1.152,0.756
			l-0.864-0.576c0,0,0.585-1.278,2.115-1.278c1.126,0,2.08,0.684,2.08,1.891c0,2.053-2.863,2.404-2.89,3.61h2.988v1h-4.24
			C320.657,83.588,320.629,83.408,320.629,83.228z"/>
		<path d="M325.849,83.228c0-2.305,2.989-2.674,2.989-3.943c0-0.558-0.433-0.891-0.973-0.891c-0.747,0-1.152,0.756-1.152,0.756
			l-0.864-0.576c0,0,0.585-1.278,2.115-1.278c1.126,0,2.08,0.684,2.08,1.891c0,2.053-2.863,2.404-2.89,3.61h2.988v1h-4.24
			C325.876,83.588,325.849,83.408,325.849,83.228z"/>
		<path d="M331.131,80.59c0-1.836,0.567-3.295,2.314-3.295c1.746,0,2.322,1.458,2.322,3.295c0,1.837-0.576,3.313-2.322,3.313
			C331.699,83.903,331.131,82.427,331.131,80.59z M334.571,80.59c0-1.242-0.252-2.224-1.125-2.224c-0.874,0-1.126,0.981-1.126,2.224
			c0,1.261,0.252,2.251,1.126,2.251C334.319,82.841,334.571,81.851,334.571,80.59z"/>
		<path d="M342.455,82.157h-2.242l-0.54,1.639h-1.197l2.251-6.392h1.215l2.251,6.392h-1.197L342.455,82.157z M341.33,78.511
			c0,0-0.145,0.63-0.271,0.99l-0.567,1.71h1.675l-0.567-1.71c-0.117-0.36-0.252-0.99-0.252-0.99H341.33z"/>
	</g>
	<g>
		<path fill="#A7A9AC" d="M16.615,160.386c1.903,0,2.882,1.067,2.882,1.067l-0.682,1.056c0,0-0.892-0.825-2.135-0.825
			c-1.649,0-2.618,1.232-2.618,2.685c0,1.485,1.001,2.794,2.63,2.794c1.353,0,2.266-0.99,2.266-0.99l0.748,1.023
			c0,0-1.078,1.265-3.069,1.265c-2.387,0-4.037-1.771-4.037-4.07C12.599,162.124,14.315,160.386,16.615,160.386z"/>
		<path fill="#A7A9AC" d="M20.794,162.718h1.342v0.968c0,0.209-0.022,0.396-0.022,0.396h0.022c0.253-0.803,0.924-1.441,1.782-1.441
			c0.132,0,0.253,0.022,0.253,0.022v1.375c0,0-0.143-0.022-0.33-0.022c-0.594,0-1.265,0.341-1.529,1.177
			c-0.088,0.275-0.121,0.583-0.121,0.913v2.222h-1.396V162.718z"/>
		<path fill="#A7A9AC" d="M25.041,162.718h1.396v3.323c0,0.682,0.177,1.144,0.869,1.144c1.013,0,1.573-0.891,1.573-1.893v-2.574
			h1.397v5.611h-1.342v-0.638c0-0.22,0.021-0.396,0.021-0.396h-0.021c-0.275,0.583-0.99,1.166-1.947,1.166
			c-1.199,0-1.947-0.605-1.947-2.134V162.718z"/>
		<path fill="#A7A9AC" d="M33.972,162.586c1.231,0,1.617,0.715,1.617,0.715h0.021c0,0-0.011-0.143-0.011-0.319v-2.464h1.397v7.811
			h-1.32v-0.462c0-0.209,0.021-0.363,0.021-0.363h-0.021c0,0-0.474,0.957-1.761,0.957c-1.518,0-2.486-1.199-2.486-2.937
			C31.43,163.741,32.487,162.586,33.972,162.586z M34.236,167.284c0.727,0,1.408-0.528,1.408-1.771c0-0.869-0.462-1.727-1.397-1.727
			c-0.77,0-1.408,0.627-1.408,1.738C32.838,166.591,33.411,167.284,34.236,167.284z"/>
		<path fill="#A7A9AC" d="M40.99,162.586c1.617,0,2.486,1.177,2.486,2.662c0,0.165-0.033,0.539-0.033,0.539h-3.872
			c0.088,0.979,0.847,1.485,1.683,1.485c0.902,0,1.617-0.616,1.617-0.616l0.539,1.001c0,0-0.857,0.803-2.255,0.803
			c-1.859,0-3.015-1.342-3.015-2.937C38.14,163.796,39.317,162.586,40.99,162.586z M42.068,164.831
			c-0.022-0.759-0.495-1.166-1.111-1.166c-0.715,0-1.21,0.44-1.342,1.166H42.068z"/>
		<path fill="#A7A9AC" d="M47.589,163.917h-0.692v-1.111h0.692v-0.253c0-1.837,1.508-2.079,2.289-2.079
			c0.286,0,0.473,0.033,0.473,0.033v1.188c0,0-0.121-0.022-0.286-0.022c-0.396,0-1.078,0.099-1.078,0.913v0.22h1.199v1.111h-1.199
			v4.412h-1.397V163.917z"/>
		<path fill="#A7A9AC" d="M51.121,162.718h1.342v0.968c0,0.209-0.022,0.396-0.022,0.396h0.022c0.253-0.803,0.924-1.441,1.782-1.441
			c0.132,0,0.253,0.022,0.253,0.022v1.375c0,0-0.143-0.022-0.33-0.022c-0.594,0-1.265,0.341-1.529,1.177
			c-0.088,0.275-0.121,0.583-0.121,0.913v2.222h-1.396V162.718z"/>
		<path fill="#A7A9AC" d="M58.106,162.586c1.716,0,3.092,1.221,3.092,2.938c0,1.727-1.376,2.937-3.081,2.937
			c-1.716,0-3.092-1.21-3.092-2.937C55.025,163.808,56.401,162.586,58.106,162.586z M58.117,167.273
			c0.902,0,1.661-0.704,1.661-1.749c0-1.034-0.759-1.75-1.661-1.75c-0.913,0-1.672,0.715-1.672,1.75
			C56.445,166.569,57.204,167.273,58.117,167.273z"/>
		<path fill="#A7A9AC" d="M62.319,162.718h1.342v0.649c0,0.209-0.022,0.385-0.022,0.385h0.022c0.275-0.55,0.946-1.166,1.826-1.166
			c0.858,0,1.408,0.396,1.64,1.155h0.021c0.309-0.605,1.034-1.155,1.914-1.155c1.167,0,1.838,0.66,1.838,2.134v3.608h-1.397v-3.345
			c0-0.638-0.121-1.122-0.771-1.122c-0.715,0-1.188,0.572-1.353,1.276c-0.056,0.22-0.066,0.462-0.066,0.726v2.464h-1.397v-3.345
			c0-0.605-0.099-1.122-0.759-1.122c-0.726,0-1.199,0.572-1.375,1.287c-0.055,0.209-0.066,0.462-0.066,0.715v2.464h-1.396V162.718z"
			/>
		<path fill="#A7A9AC" d="M13.138,173.718h3.015c1.463,0,2.486,1.023,2.486,2.542c0,1.518-1.023,2.574-2.486,2.574h-1.596v2.695
			h-1.419V173.718z M15.888,177.602c0.825,0,1.31-0.528,1.31-1.342c0-0.803-0.484-1.32-1.287-1.32h-1.354v2.662H15.888z"/>
		<path fill="#A7A9AC" d="M20.288,173.718h1.519l1.529,3.861c0.176,0.462,0.396,1.145,0.396,1.145h0.021
			c0,0,0.209-0.682,0.385-1.145l1.529-3.861h1.519l0.627,7.811h-1.408l-0.33-4.368c-0.033-0.517-0.011-1.21-0.011-1.21h-0.022
			c0,0-0.23,0.759-0.418,1.21l-1.265,3.025h-1.243l-1.255-3.025c-0.187-0.451-0.429-1.221-0.429-1.221h-0.021
			c0,0,0.021,0.704-0.012,1.221l-0.33,4.368H19.65L20.288,173.718z"/>
		<path fill="#A7A9AC" d="M36.107,179.527h-2.739l-0.66,2.002h-1.464l2.751-7.811h1.485l2.75,7.811h-1.463L36.107,179.527z
			 M34.731,175.071c0,0-0.176,0.77-0.329,1.21l-0.693,2.09h2.046l-0.693-2.09c-0.143-0.44-0.308-1.21-0.308-1.21H34.731z"/>
		<path fill="#A7A9AC" d="M39.175,179.857c0,0,0.615,0.616,1.529,0.616c0.396,0,0.736-0.176,0.736-0.506
			c0-0.836-2.729-0.726-2.729-2.531c0-1.045,0.936-1.65,2.146-1.65c1.266,0,1.882,0.638,1.882,0.638l-0.518,1.034
			c0,0-0.517-0.484-1.375-0.484c-0.363,0-0.715,0.154-0.715,0.506c0,0.792,2.729,0.693,2.729,2.498c0,0.935-0.814,1.683-2.146,1.683
			c-1.397,0-2.179-0.825-2.179-0.825L39.175,179.857z"/>
		<path fill="#A7A9AC" d="M44.147,179.857c0,0,0.615,0.616,1.528,0.616c0.396,0,0.737-0.176,0.737-0.506
			c0-0.836-2.729-0.726-2.729-2.531c0-1.045,0.936-1.65,2.146-1.65c1.266,0,1.882,0.638,1.882,0.638l-0.518,1.034
			c0,0-0.517-0.484-1.375-0.484c-0.363,0-0.715,0.154-0.715,0.506c0,0.792,2.729,0.693,2.729,2.498c0,0.935-0.814,1.683-2.146,1.683
			c-1.397,0-2.179-0.825-2.179-0.825L44.147,179.857z"/>
		<path fill="#A7A9AC" d="M51.408,175.787c1.617,0,2.486,1.177,2.486,2.662c0,0.165-0.033,0.539-0.033,0.539h-3.872
			c0.088,0.979,0.847,1.485,1.683,1.485c0.902,0,1.617-0.616,1.617-0.616l0.539,1.001c0,0-0.857,0.803-2.255,0.803
			c-1.859,0-3.015-1.342-3.015-2.937C48.558,176.997,49.735,175.787,51.408,175.787z M52.486,178.031
			c-0.022-0.759-0.495-1.166-1.111-1.166c-0.715,0-1.21,0.44-1.342,1.166H52.486z"/>
		<path fill="#A7A9AC" d="M55.29,177.118h-0.726v-1.111h0.759v-1.617h1.364v1.617h1.276v1.111h-1.276v2.178
			c0,0.924,0.727,1.056,1.111,1.056c0.154,0,0.253-0.022,0.253-0.022v1.221c0,0-0.165,0.033-0.429,0.033
			c-0.781,0-2.333-0.231-2.333-2.112V177.118z"/>
		<path fill="#A7A9AC" d="M59.36,179.857c0,0,0.615,0.616,1.528,0.616c0.396,0,0.737-0.176,0.737-0.506
			c0-0.836-2.729-0.726-2.729-2.531c0-1.045,0.936-1.65,2.146-1.65c1.266,0,1.882,0.638,1.882,0.638l-0.518,1.034
			c0,0-0.517-0.484-1.375-0.484c-0.363,0-0.715,0.154-0.715,0.506c0,0.792,2.729,0.693,2.729,2.498c0,0.935-0.814,1.683-2.146,1.683
			c-1.397,0-2.179-0.825-2.179-0.825L59.36,179.857z"/>
	</g>
	<g>
		<path d="M142.518,22.789h2.368c1.287,0,2.188,0.576,2.188,1.684c0,0.54-0.261,1.089-0.747,1.369v0.018
			c0.738,0.225,1.008,0.882,1.008,1.45c0,1.404-1.17,1.917-2.448,1.917h-2.368V22.789z M144.903,25.283
			c0.396,0,0.567-0.288,0.567-0.594c0-0.297-0.171-0.549-0.594-0.549h-0.783v1.143H144.903z M145.039,27.875
			c0.459,0,0.684-0.315,0.684-0.675c0-0.36-0.216-0.657-0.675-0.657h-0.954v1.332H145.039z"/>
		<path d="M150.609,26.336h0.062v-0.081c0-0.387-0.297-0.513-0.684-0.513c-0.585,0-1.252,0.441-1.252,0.441l-0.54-1.098
			c0,0,0.802-0.604,1.944-0.604c1.306,0,2.089,0.711,2.089,1.891v2.854h-1.422v-0.279c0-0.153,0.018-0.288,0.018-0.288h-0.018
			c0,0-0.343,0.675-1.314,0.675c-0.864,0-1.576-0.576-1.576-1.494C147.917,26.489,149.889,26.336,150.609,26.336z M149.925,28.146
			c0.405,0,0.766-0.441,0.766-0.819v-0.099h-0.145c-0.495,0-1.062,0.144-1.062,0.531C149.484,27.975,149.619,28.146,149.925,28.146z
			"/>
		<path d="M153.309,24.59h1.494v0.405c0,0.153-0.018,0.288-0.018,0.288h0.018c0.217-0.36,0.657-0.801,1.477-0.801
			c0.937,0,1.666,0.432,1.666,1.738v3.007h-1.558v-2.719c0-0.432-0.171-0.612-0.514-0.612c-0.485,0-0.783,0.27-0.918,0.666
			c-0.063,0.18-0.09,0.387-0.09,0.612v2.053h-1.558V24.59z"/>
		<path d="M159.033,22.789h1.558v3.331h0.441l0.918-1.53h1.692l-1.359,2.106v0.018l1.549,2.512h-1.773l-0.981-1.801h-0.486v1.801
			h-1.558V22.789z"/>
		<path d="M169.888,27.875h-2.008l-0.388,1.351h-1.62l2.188-6.437h1.657l2.188,6.437h-1.621L169.888,27.875z M168.879,24.256
			c0,0-0.144,0.703-0.261,1.107l-0.369,1.251h1.27l-0.36-1.251c-0.117-0.405-0.261-1.107-0.261-1.107H168.879z"/>
	</g>
	<g>
		<path fill="#E0B15A" d="M15.005,99.529h-4.557V96.38h12.787v3.149h-4.557v11.863h-3.674V99.529z"/>
		<path fill="#E0B15A" d="M24.098,100.579h3.485v1.827c0,0.357-0.042,0.672-0.042,0.672h0.042c0.462-1.47,1.826-2.688,3.443-2.688
			c0.21,0,0.42,0.042,0.42,0.042v3.569c0,0-0.294-0.063-0.734-0.063c-0.861,0-2.268,0.273-2.793,1.89
			c-0.126,0.399-0.189,0.882-0.189,1.47v4.094h-3.632V100.579z"/>
		<path fill="#E0B15A" d="M38.587,104.652h0.146v-0.189c0-0.903-0.692-1.197-1.596-1.197c-1.364,0-2.918,1.029-2.918,1.029
			l-1.26-2.562c0,0,1.869-1.407,4.535-1.407c3.045,0,4.871,1.659,4.871,4.409v6.656h-3.317v-0.651c0-0.357,0.042-0.672,0.042-0.672
			h-0.042c0,0-0.798,1.575-3.065,1.575c-2.016,0-3.674-1.344-3.674-3.485C32.31,105.009,36.908,104.652,38.587,104.652z
			 M36.992,108.873c0.945,0,1.785-1.029,1.785-1.911v-0.231h-0.336c-1.155,0-2.479,0.336-2.479,1.239
			C35.962,108.474,36.278,108.873,36.992,108.873z"/>
		<path fill="#E0B15A" d="M44.888,100.579h3.633v10.813h-3.633V100.579z M44.93,96.38h3.548v2.834H44.93V96.38z"/>
		<path fill="#E0B15A" d="M51.209,100.579h3.485v0.945c0,0.357-0.042,0.672-0.042,0.672h0.042c0.504-0.84,1.533-1.869,3.443-1.869
			c2.184,0,3.885,1.008,3.885,4.052v7.013H58.39v-6.341c0-1.008-0.398-1.428-1.197-1.428c-1.133,0-1.826,0.63-2.141,1.554
			c-0.147,0.42-0.211,0.903-0.211,1.428v4.787h-3.632V100.579z"/>
		<path fill="#E0B15A" d="M77.31,108.243h-4.682l-0.903,3.149h-3.779l5.103-15.012h3.863l5.102,15.012h-3.779L77.31,108.243z
			 M74.958,99.802c0,0-0.336,1.638-0.609,2.583l-0.86,2.918h2.96l-0.84-2.918C75.336,101.44,75,99.802,75,99.802H74.958z"/>
	</g>
	<g>
		<path fill="#60619D" d="M15.037,233.933H10.48v-3.149h12.787v3.149H18.71v11.863h-3.674V233.933z"/>
		<path fill="#60619D" d="M24.129,234.982h3.485v1.827c0,0.357-0.042,0.672-0.042,0.672h0.042c0.462-1.47,1.826-2.688,3.443-2.688
			c0.21,0,0.42,0.042,0.42,0.042v3.569c0,0-0.294-0.063-0.734-0.063c-0.861,0-2.268,0.273-2.793,1.89
			c-0.126,0.399-0.189,0.882-0.189,1.47v4.094h-3.632V234.982z"/>
		<path fill="#60619D" d="M38.619,239.056h0.146v-0.189c0-0.903-0.692-1.197-1.596-1.197c-1.364,0-2.918,1.029-2.918,1.029
			l-1.26-2.562c0,0,1.869-1.407,4.535-1.407c3.045,0,4.871,1.659,4.871,4.409v6.656h-3.317v-0.651c0-0.357,0.042-0.672,0.042-0.672
			h-0.042c0,0-0.798,1.575-3.065,1.575c-2.016,0-3.674-1.344-3.674-3.485C32.341,239.413,36.939,239.056,38.619,239.056z
			 M37.023,243.276c0.945,0,1.785-1.029,1.785-1.911v-0.231h-0.336c-1.155,0-2.479,0.336-2.479,1.239
			C35.994,242.877,36.309,243.276,37.023,243.276z"/>
		<path fill="#60619D" d="M44.919,234.982h3.633v10.813h-3.633V234.982z M44.961,230.783h3.548v2.834h-3.548V230.783z"/>
		<path fill="#60619D" d="M51.241,234.982h3.485v0.945c0,0.357-0.042,0.672-0.042,0.672h0.042c0.504-0.84,1.533-1.869,3.443-1.869
			c2.184,0,3.885,1.008,3.885,4.052v7.013h-3.633v-6.341c0-1.008-0.398-1.428-1.197-1.428c-1.133,0-1.826,0.63-2.141,1.554
			c-0.147,0.42-0.211,0.903-0.211,1.428v4.787h-3.632V234.982z"/>
		<path fill="#60619D" d="M69.825,230.783h5.522c3.002,0,5.102,1.344,5.102,3.926c0,1.26-0.609,2.541-1.742,3.191v0.042
			c1.721,0.525,2.352,2.058,2.352,3.38c0,3.275-2.73,4.472-5.711,4.472h-5.522V230.783z M75.388,236.599
			c0.924,0,1.323-0.672,1.323-1.386c0-0.693-0.399-1.281-1.386-1.281H73.5v2.667H75.388z M75.704,242.646
			c1.071,0,1.596-0.735,1.596-1.575s-0.504-1.533-1.575-1.533H73.5v3.107H75.704z"/>
	</g>
	<g>
		<path d="M142.531,94.47h2.368c1.287,0,2.188,0.576,2.188,1.684c0,0.54-0.261,1.089-0.747,1.369v0.018
			c0.738,0.225,1.008,0.882,1.008,1.45c0,1.404-1.17,1.917-2.448,1.917h-2.368V94.47z M144.917,96.964
			c0.396,0,0.567-0.288,0.567-0.594c0-0.297-0.171-0.549-0.594-0.549h-0.783v1.143H144.917z M145.053,99.557
			c0.459,0,0.684-0.315,0.684-0.675c0-0.36-0.216-0.657-0.675-0.657h-0.954v1.332H145.053z"/>
		<path d="M150.623,98.018h0.062v-0.081c0-0.387-0.297-0.513-0.684-0.513c-0.585,0-1.252,0.441-1.252,0.441l-0.54-1.098
			c0,0,0.802-0.604,1.944-0.604c1.306,0,2.089,0.711,2.089,1.891v2.854h-1.422v-0.279c0-0.153,0.018-0.288,0.018-0.288h-0.018
			c0,0-0.343,0.675-1.314,0.675c-0.864,0-1.576-0.576-1.576-1.494C147.931,98.17,149.902,98.018,150.623,98.018z M149.938,99.827
			c0.405,0,0.766-0.441,0.766-0.819v-0.099h-0.145c-0.495,0-1.062,0.144-1.062,0.531C149.498,99.656,149.633,99.827,149.938,99.827z
			"/>
		<path d="M153.322,96.271h1.494v0.405c0,0.153-0.018,0.288-0.018,0.288h0.018c0.217-0.36,0.657-0.801,1.477-0.801
			c0.937,0,1.666,0.432,1.666,1.738v3.007h-1.558v-2.719c0-0.432-0.171-0.612-0.514-0.612c-0.485,0-0.783,0.27-0.918,0.666
			c-0.063,0.18-0.09,0.387-0.09,0.612v2.053h-1.558V96.271z"/>
		<path d="M159.047,94.47h1.558v3.331h0.441l0.918-1.53h1.692l-1.359,2.106v0.018l1.549,2.512h-1.773l-0.981-1.801h-0.486v1.801
			h-1.558V94.47z"/>
		<path d="M166.678,94.47h2.368c1.287,0,2.188,0.576,2.188,1.684c0,0.54-0.261,1.089-0.747,1.369v0.018
			c0.738,0.225,1.008,0.882,1.008,1.45c0,1.404-1.17,1.917-2.448,1.917h-2.368V94.47z M169.063,96.964
			c0.396,0,0.567-0.288,0.567-0.594c0-0.297-0.171-0.549-0.594-0.549h-0.783v1.143H169.063z M169.199,99.557
			c0.459,0,0.684-0.315,0.684-0.675c0-0.36-0.216-0.657-0.675-0.657h-0.954v1.332H169.199z"/>
	</g>
	<g>
		<path d="M306.216,149.807h1.161v2.71h2.926v-2.71h1.161v6.392h-1.161v-2.683h-2.926v2.683h-1.161V149.807z"/>
		<path d="M314.416,152.958l-1.908-3.151h1.323l0.873,1.567c0.207,0.369,0.405,0.783,0.405,0.783h0.018c0,0,0.181-0.405,0.388-0.783
			l0.891-1.567h1.333l-1.927,3.151l1.999,3.241h-1.306l-0.99-1.72c-0.207-0.369-0.396-0.756-0.396-0.756H315.1
			c0,0-0.181,0.387-0.396,0.756l-0.981,1.72h-1.296L314.416,152.958z"/>
		<path d="M320.607,155.631c0-2.305,2.989-2.674,2.989-3.943c0-0.558-0.433-0.891-0.973-0.891c-0.747,0-1.152,0.756-1.152,0.756
			l-0.864-0.576c0,0,0.585-1.278,2.115-1.278c1.126,0,2.08,0.684,2.08,1.891c0,2.053-2.863,2.404-2.89,3.61h2.988v1h-4.24
			C320.634,155.992,320.607,155.812,320.607,155.631z"/>
		<path d="M325.827,155.631c0-2.305,2.989-2.674,2.989-3.943c0-0.558-0.433-0.891-0.973-0.891c-0.747,0-1.152,0.756-1.152,0.756
			l-0.864-0.576c0,0,0.585-1.278,2.115-1.278c1.126,0,2.08,0.684,2.08,1.891c0,2.053-2.863,2.404-2.89,3.61h2.988v1h-4.24
			C325.854,155.992,325.827,155.812,325.827,155.631z"/>
		<path d="M331.109,152.994c0-1.836,0.567-3.295,2.314-3.295c1.746,0,2.322,1.458,2.322,3.295c0,1.837-0.576,3.313-2.322,3.313
			C331.676,156.307,331.109,154.831,331.109,152.994z M334.548,152.994c0-1.242-0.252-2.224-1.125-2.224
			c-0.874,0-1.126,0.981-1.126,2.224c0,1.261,0.252,2.251,1.126,2.251C334.296,155.245,334.548,154.254,334.548,152.994z"/>
		<path d="M339.254,149.807h2.286c1.152,0,1.972,0.594,1.972,1.647c0,0.594-0.288,1.107-0.774,1.369v0.018
			c0.702,0.207,1.035,0.855,1.035,1.503c0,1.278-1.025,1.854-2.205,1.854h-2.313V149.807z M341.541,152.417
			c0.504,0,0.793-0.36,0.793-0.819c0-0.459-0.271-0.792-0.811-0.792h-1.107v1.611H341.541z M341.658,155.199
			c0.595,0,0.928-0.387,0.928-0.927c0-0.531-0.343-0.918-0.928-0.918h-1.242v1.845H341.658z"/>
	</g>
	<g>
		<path d="M415.981,21.726c1.566,0,2.377,0.811,2.377,0.811l-0.576,0.864c0,0-0.685-0.612-1.701-0.612
			c-1.432,0-2.197,0.99-2.197,2.196c0,1.387,0.945,2.287,2.143,2.287c0.964,0,1.603-0.667,1.603-0.667v-0.747h-0.981v-1h2.026v3.367
			h-0.99V27.92c0-0.135,0.009-0.27,0.009-0.27h-0.019c0,0-0.666,0.684-1.854,0.684c-1.684,0-3.133-1.305-3.133-3.313
			C412.686,23.167,414.082,21.726,415.981,21.726z"/>
		<path d="M422.11,25.345h0.153v-0.063c0-0.603-0.379-0.81-0.883-0.81c-0.657,0-1.26,0.441-1.26,0.441l-0.433-0.819
			c0,0,0.711-0.567,1.801-0.567c1.206,0,1.908,0.666,1.908,1.827v2.872h-1.053v-0.378c0-0.18,0.018-0.324,0.018-0.324h-0.018
			c0.009,0-0.352,0.81-1.396,0.81c-0.819,0-1.558-0.513-1.558-1.431C419.391,25.444,421.363,25.345,422.11,25.345z M421.237,27.443
			c0.603,0,1.035-0.648,1.035-1.207v-0.108h-0.198c-0.585,0-1.53,0.081-1.53,0.72C420.543,27.155,420.768,27.443,421.237,27.443z"/>
		<path d="M424.719,26.858c0,0,0.504,0.504,1.251,0.504c0.324,0,0.604-0.144,0.604-0.414c0-0.684-2.233-0.594-2.233-2.071
			c0-0.855,0.766-1.35,1.756-1.35c1.035,0,1.539,0.522,1.539,0.522l-0.423,0.846c0,0-0.423-0.396-1.125-0.396
			c-0.297,0-0.585,0.126-0.585,0.414c0,0.648,2.232,0.567,2.232,2.043c0,0.766-0.666,1.377-1.756,1.377
			c-1.144,0-1.782-0.675-1.782-0.675L424.719,26.858z"/>
	</g>
	<g>
		<path d="M430.28,33.667h1.161v2.71h2.926v-2.71h1.161v6.392h-1.161v-2.683h-2.926v2.683h-1.161V33.667z"/>
		<path d="M437.147,33.667h2.467c1.197,0,2.034,0.837,2.034,2.08c0,1.243-0.837,2.107-2.034,2.107h-1.306v2.206h-1.161V33.667z
			 M439.397,36.846c0.676,0,1.071-0.432,1.071-1.099c0-0.657-0.396-1.08-1.053-1.08h-1.107v2.179H439.397z"/>
	</g>
	<g>
		<path d="M436.276,87.71h1.667l1.871,5.553c0.168,0.492,0.312,1.248,0.323,1.248h0.024c0.012,0,0.156-0.756,0.323-1.248
			l1.884-5.553h1.654l-3.105,8.515h-1.535L436.276,87.71z"/>
		<path d="M447.531,95.47c0-3.07,3.981-3.562,3.981-5.253c0-0.744-0.575-1.188-1.295-1.188c-0.995,0-1.535,1.008-1.535,1.008
			l-1.151-0.768c0,0,0.779-1.703,2.818-1.703c1.499,0,2.771,0.912,2.771,2.519c0,2.734-3.813,3.202-3.85,4.81h3.981v1.331h-5.648
			C447.567,95.95,447.531,95.71,447.531,95.47z"/>
		<path d="M454.491,95.47c0-3.07,3.981-3.562,3.981-5.253c0-0.744-0.575-1.188-1.295-1.188c-0.995,0-1.535,1.008-1.535,1.008
			l-1.151-0.768c0,0,0.779-1.703,2.818-1.703c1.499,0,2.771,0.912,2.771,2.519c0,2.734-3.813,3.202-3.85,4.81h3.981v1.331h-5.648
			C454.527,95.95,454.491,95.71,454.491,95.47z"/>
		<path d="M461.535,91.956c0-2.447,0.756-4.39,3.082-4.39c2.327,0,3.095,1.943,3.095,4.39c0,2.446-0.768,4.414-3.095,4.414
			C462.291,96.37,461.535,94.402,461.535,91.956z M466.116,91.956c0-1.655-0.335-2.962-1.499-2.962
			c-1.163,0-1.499,1.307-1.499,2.962c0,1.679,0.336,2.998,1.499,2.998C465.781,94.954,466.116,93.635,466.116,91.956z"/>
		<path d="M473.712,94.043h-2.986l-0.72,2.183h-1.596l2.999-8.515h1.619l2.998,8.515h-1.596L473.712,94.043z M472.212,89.186
			c0,0-0.191,0.839-0.359,1.319l-0.756,2.279h2.231l-0.756-2.279c-0.156-0.48-0.336-1.319-0.336-1.319H472.212z"/>
	</g>
	<g>
		<path d="M435.344,124.587c0.1,0.369,0.108,0.675,0.117,0.675h0.019c0,0,0.026-0.315,0.107-0.675l1.054-4.42h1.197l-1.647,6.392
			h-1.342l-0.981-3.781c-0.107-0.414-0.162-0.837-0.162-0.837h-0.018c0,0-0.054,0.423-0.162,0.837l-0.981,3.781h-1.341l-1.603-6.392
			h1.197l1.008,4.42c0.081,0.36,0.108,0.675,0.108,0.675h0.018c0.01,0,0.019-0.306,0.117-0.675l1.152-4.42h1.009L435.344,124.587z"
			/>
		<path d="M440.897,123.678h0.153v-0.063c0-0.603-0.378-0.81-0.883-0.81c-0.657,0-1.26,0.441-1.26,0.441l-0.433-0.819
			c0,0,0.711-0.567,1.801-0.567c1.206,0,1.908,0.666,1.908,1.827v2.872h-1.053v-0.378c0-0.18,0.018-0.324,0.018-0.324h-0.018
			c0.009,0-0.352,0.81-1.396,0.81c-0.819,0-1.558-0.513-1.558-1.431C438.178,123.777,440.15,123.678,440.897,123.678z
			 M440.024,125.776c0.603,0,1.035-0.648,1.035-1.207v-0.108h-0.198c-0.585,0-1.53,0.081-1.53,0.72
			C439.331,125.488,439.555,125.776,440.024,125.776z"/>
		<path d="M443.542,122.949h-0.594v-0.91h0.621v-1.323h1.116v1.323h1.044v0.91h-1.044v1.782c0,0.756,0.594,0.864,0.909,0.864
			c0.126,0,0.207-0.018,0.207-0.018v1c0,0-0.135,0.027-0.352,0.027c-0.639,0-1.908-0.189-1.908-1.729V122.949z"/>
		<path d="M448.745,121.86c1.323,0,2.035,0.963,2.035,2.179c0,0.135-0.027,0.441-0.027,0.441h-3.169
			c0.072,0.801,0.693,1.215,1.377,1.215c0.738,0,1.323-0.504,1.323-0.504l0.441,0.819c0,0-0.702,0.657-1.846,0.657
			c-1.521,0-2.467-1.098-2.467-2.404C446.413,122.85,447.376,121.86,448.745,121.86z M449.627,123.696
			c-0.019-0.621-0.405-0.955-0.91-0.955c-0.585,0-0.99,0.36-1.098,0.955H449.627z"/>
		<path d="M451.722,121.968h1.099v0.792c0,0.171-0.018,0.324-0.018,0.324h0.018c0.207-0.657,0.756-1.179,1.458-1.179
			c0.108,0,0.207,0.018,0.207,0.018v1.125c0,0-0.116-0.018-0.27-0.018c-0.486,0-1.035,0.279-1.251,0.963
			c-0.072,0.225-0.1,0.477-0.1,0.748v1.818h-1.144V121.968z"/>
	</g>
	<g>
		<path d="M480.125,68.667h3.826v1h-2.665v1.674h2.151v1h-2.151v1.719h2.809v1h-3.97V68.667z"/>
		<path d="M485.3,68.667h2.467c1.197,0,2.034,0.837,2.034,2.08c0,1.243-0.837,2.107-2.034,2.107h-1.306v2.206H485.3V68.667z
			 M487.55,71.846c0.676,0,1.071-0.432,1.071-1.099c0-0.657-0.396-1.08-1.053-1.08h-1.107v2.179H487.55z"/>
	</g>
	<g>
		<path d="M485.276,122.71h1.667l1.871,5.553c0.168,0.492,0.312,1.248,0.323,1.248h0.024c0.012,0,0.156-0.756,0.323-1.248
			l1.884-5.553h1.654l-3.105,8.515h-1.535L485.276,122.71z"/>
		<path d="M496.531,130.47c0-3.07,3.981-3.562,3.981-5.253c0-0.744-0.575-1.188-1.295-1.188c-0.995,0-1.535,1.008-1.535,1.008
			l-1.151-0.768c0,0,0.779-1.703,2.818-1.703c1.499,0,2.771,0.912,2.771,2.519c0,2.734-3.813,3.202-3.85,4.81h3.981v1.331h-5.648
			C496.567,130.95,496.531,130.71,496.531,130.47z"/>
		<path d="M503.491,130.47c0-3.07,3.981-3.562,3.981-5.253c0-0.744-0.575-1.188-1.295-1.188c-0.995,0-1.535,1.008-1.535,1.008
			l-1.151-0.768c0,0,0.779-1.703,2.818-1.703c1.499,0,2.771,0.912,2.771,2.519c0,2.734-3.813,3.202-3.85,4.81h3.981v1.331h-5.648
			C503.527,130.95,503.491,130.71,503.491,130.47z"/>
		<path d="M510.535,126.956c0-2.447,0.756-4.39,3.082-4.39c2.327,0,3.095,1.943,3.095,4.39c0,2.446-0.768,4.414-3.095,4.414
			C511.291,131.37,510.535,129.402,510.535,126.956z M515.116,126.956c0-1.655-0.335-2.962-1.499-2.962
			c-1.163,0-1.499,1.307-1.499,2.962c0,1.679,0.336,2.998,1.499,2.998C514.781,129.954,515.116,128.635,515.116,126.956z"/>
		<path d="M522.712,129.043h-2.986l-0.72,2.183h-1.596l2.999-8.515h1.619l2.998,8.515h-1.596L522.712,129.043z M521.212,124.186
			c0,0-0.191,0.839-0.359,1.319l-0.756,2.279h2.231l-0.756-2.279c-0.156-0.48-0.336-1.319-0.336-1.319H521.212z"/>
	</g>
	<g>
		<path d="M484.344,159.587c0.1,0.369,0.108,0.675,0.117,0.675h0.019c0,0,0.026-0.315,0.107-0.675l1.054-4.42h1.197l-1.647,6.392
			h-1.342l-0.981-3.781c-0.107-0.414-0.162-0.837-0.162-0.837h-0.018c0,0-0.054,0.423-0.162,0.837l-0.981,3.781h-1.341l-1.603-6.392
			h1.197l1.008,4.42c0.081,0.36,0.108,0.675,0.108,0.675h0.018c0.01,0,0.019-0.306,0.117-0.675l1.152-4.42h1.009L484.344,159.587z"
			/>
		<path d="M489.897,158.678h0.153v-0.063c0-0.603-0.378-0.81-0.883-0.81c-0.657,0-1.26,0.441-1.26,0.441l-0.433-0.819
			c0,0,0.711-0.567,1.801-0.567c1.206,0,1.908,0.666,1.908,1.827v2.872h-1.053v-0.378c0-0.18,0.018-0.324,0.018-0.324h-0.018
			c0.009,0-0.352,0.81-1.396,0.81c-0.819,0-1.558-0.513-1.558-1.431C487.178,158.777,489.15,158.678,489.897,158.678z
			 M489.024,160.776c0.603,0,1.035-0.648,1.035-1.207v-0.108h-0.198c-0.585,0-1.53,0.081-1.53,0.72
			C488.331,160.488,488.555,160.776,489.024,160.776z"/>
		<path d="M492.542,157.949h-0.594v-0.91h0.621v-1.323h1.116v1.323h1.044v0.91h-1.044v1.782c0,0.756,0.594,0.864,0.909,0.864
			c0.126,0,0.207-0.018,0.207-0.018v1c0,0-0.135,0.027-0.352,0.027c-0.639,0-1.908-0.189-1.908-1.729V157.949z"/>
		<path d="M497.745,156.86c1.323,0,2.035,0.963,2.035,2.179c0,0.135-0.027,0.441-0.027,0.441h-3.169
			c0.072,0.801,0.693,1.215,1.377,1.215c0.738,0,1.323-0.504,1.323-0.504l0.441,0.819c0,0-0.702,0.657-1.846,0.657
			c-1.521,0-2.467-1.098-2.467-2.404C495.413,157.85,496.376,156.86,497.745,156.86z M498.627,158.696
			c-0.019-0.621-0.405-0.955-0.91-0.955c-0.585,0-0.99,0.36-1.098,0.955H498.627z"/>
		<path d="M500.722,156.968h1.099v0.792c0,0.171-0.018,0.324-0.018,0.324h0.018c0.207-0.657,0.756-1.179,1.458-1.179
			c0.108,0,0.207,0.018,0.207,0.018v1.125c0,0-0.116-0.018-0.27-0.018c-0.486,0-1.035,0.279-1.251,0.963
			c-0.072,0.225-0.1,0.477-0.1,0.748v1.818h-1.144V156.968z"/>
	</g>
	<g>
		<path d="M559.236,102h1.161v5.393h2.764v1h-3.925V102z"/>
		<path d="M566.824,101.892c1.558,0,2.358,0.874,2.358,0.874l-0.558,0.864c0,0-0.729-0.675-1.747-0.675
			c-1.351,0-2.143,1.008-2.143,2.196c0,1.216,0.819,2.287,2.151,2.287c1.107,0,1.854-0.811,1.854-0.811l0.612,0.837
			c0,0-0.882,1.035-2.512,1.035c-1.953,0-3.304-1.449-3.304-3.331C563.538,103.314,564.942,101.892,566.824,101.892z"/>
		<path d="M569.603,102h1.251l1.404,4.168c0.126,0.369,0.234,0.936,0.243,0.936h0.019c0.009,0,0.117-0.567,0.243-0.936l1.413-4.168
			h1.242l-2.332,6.392h-1.152L569.603,102z"/>
		<path d="M578.045,107.825c0-2.305,2.989-2.674,2.989-3.943c0-0.558-0.433-0.891-0.973-0.891c-0.747,0-1.152,0.756-1.152,0.756
			l-0.864-0.576c0,0,0.585-1.278,2.115-1.278c1.126,0,2.08,0.684,2.08,1.891c0,2.053-2.863,2.404-2.89,3.61h2.988v1h-4.24
			C578.073,108.185,578.045,108.005,578.045,107.825z"/>
		<path d="M583.292,105.466c0-1.675,0.963-3.574,2.943-3.574c0.811,0,1.306,0.27,1.306,0.27l-0.342,1c0,0-0.405-0.198-0.9-0.198
			c-1.009,0-1.54,0.837-1.702,1.71h0.019c0.225-0.261,0.738-0.45,1.197-0.45c1.26,0,2.053,0.981,2.053,2.134
			c0,1.188-0.838,2.143-2.106,2.143C584.426,108.5,583.292,107.393,583.292,105.466z M586.713,106.357
			c0-0.648-0.405-1.179-1.171-1.179c-0.576,0-1.044,0.297-1.044,0.693c0,0.801,0.585,1.566,1.261,1.566
			C586.353,107.438,586.713,106.96,586.713,106.357z"/>
		<path d="M588.502,106.033l2.755-4.033h1.378v3.781h0.828v0.963h-0.828v1.647h-1.144v-1.647h-2.989V106.033z M591.492,105.781
			v-1.98c0-0.315,0.045-0.667,0.045-0.667h-0.019c0,0-0.144,0.342-0.314,0.585l-1.477,2.043v0.018H591.492z"/>
		<path d="M597.828,106.753h-2.242l-0.54,1.639h-1.197l2.251-6.392h1.215l2.251,6.392h-1.197L597.828,106.753z M596.703,103.107
			c0,0-0.145,0.63-0.271,0.99l-0.567,1.71h1.675l-0.567-1.71c-0.117-0.36-0.252-0.99-0.252-0.99H596.703z"/>
	</g>
	<g>
		<path d="M513.981,91.726c1.566,0,2.377,0.811,2.377,0.811l-0.576,0.864c0,0-0.685-0.612-1.701-0.612
			c-1.432,0-2.197,0.99-2.197,2.196c0,1.387,0.945,2.287,2.143,2.287c0.964,0,1.603-0.667,1.603-0.667v-0.747h-0.981v-1h2.026v3.367
			h-0.99V97.92c0-0.135,0.009-0.27,0.009-0.27h-0.019c0,0-0.666,0.684-1.854,0.684c-1.684,0-3.133-1.305-3.133-3.313
			C510.686,93.167,512.082,91.726,513.981,91.726z"/>
		<path d="M520.11,95.345h0.153v-0.063c0-0.603-0.379-0.81-0.883-0.81c-0.657,0-1.26,0.441-1.26,0.441l-0.433-0.819
			c0,0,0.711-0.567,1.801-0.567c1.206,0,1.908,0.666,1.908,1.827v2.872h-1.053v-0.378c0-0.18,0.018-0.324,0.018-0.324h-0.018
			c0.009,0-0.352,0.81-1.396,0.81c-0.819,0-1.558-0.513-1.558-1.431C517.391,95.444,519.363,95.345,520.11,95.345z M519.237,97.443
			c0.603,0,1.035-0.648,1.035-1.207v-0.108h-0.198c-0.585,0-1.53,0.081-1.53,0.72C518.543,97.155,518.768,97.443,519.237,97.443z"/>
		<path d="M522.719,96.858c0,0,0.504,0.504,1.251,0.504c0.324,0,0.604-0.144,0.604-0.414c0-0.684-2.233-0.594-2.233-2.071
			c0-0.855,0.766-1.35,1.756-1.35c1.035,0,1.539,0.522,1.539,0.522l-0.423,0.846c0,0-0.423-0.396-1.125-0.396
			c-0.297,0-0.585,0.126-0.585,0.414c0,0.648,2.232,0.567,2.232,2.043c0,0.766-0.666,1.377-1.756,1.377
			c-1.144,0-1.782-0.675-1.782-0.675L522.719,96.858z"/>
	</g>
	<g>
		<path d="M529.288,103.667h1.161v5.393h2.764v1h-3.925V103.667z"/>
		<path d="M534.138,103.667h2.467c1.197,0,2.034,0.837,2.034,2.08c0,1.243-0.837,2.107-2.034,2.107h-1.306v2.206h-1.161V103.667z
			 M536.388,106.846c0.676,0,1.071-0.432,1.071-1.099c0-0.657-0.396-1.08-1.053-1.08h-1.107v2.179H536.388z"/>
	</g>
	<g>
		<path d="M387.246,214.71h1.667l1.871,5.553c0.168,0.492,0.312,1.248,0.323,1.248h0.024c0.012,0,0.155-0.756,0.323-1.248
			l1.884-5.553h1.654l-3.105,8.515h-1.535L387.246,214.71z"/>
		<path d="M398.5,222.47c0-3.07,3.981-3.562,3.981-5.253c0-0.744-0.575-1.188-1.295-1.188c-0.995,0-1.535,1.008-1.535,1.008
			l-1.151-0.768c0,0,0.779-1.703,2.818-1.703c1.499,0,2.771,0.912,2.771,2.519c0,2.734-3.813,3.202-3.85,4.81h3.981v1.331h-5.648
			C398.537,222.95,398.5,222.71,398.5,222.47z"/>
		<path d="M405.46,222.47c0-3.07,3.981-3.562,3.981-5.253c0-0.744-0.575-1.188-1.295-1.188c-0.995,0-1.535,1.008-1.535,1.008
			l-1.151-0.768c0,0,0.779-1.703,2.818-1.703c1.499,0,2.771,0.912,2.771,2.519c0,2.734-3.813,3.202-3.85,4.81h3.981v1.331h-5.648
			C405.497,222.95,405.46,222.71,405.46,222.47z"/>
		<path d="M412.504,218.956c0-2.447,0.756-4.39,3.082-4.39c2.327,0,3.095,1.943,3.095,4.39c0,2.446-0.768,4.414-3.095,4.414
			C413.26,223.37,412.504,221.402,412.504,218.956z M417.085,218.956c0-1.655-0.335-2.962-1.499-2.962
			c-1.163,0-1.499,1.307-1.499,2.962c0,1.679,0.336,2.998,1.499,2.998C416.75,221.954,417.085,220.635,417.085,218.956z"/>
		<path d="M420.448,214.71h3.047c1.535,0,2.626,0.792,2.626,2.195c0,0.792-0.384,1.475-1.031,1.823v0.024
			c0.936,0.276,1.379,1.14,1.379,2.003c0,1.703-1.367,2.471-2.938,2.471h-3.083V214.71z M423.495,218.188
			c0.671,0,1.056-0.48,1.056-1.091c0-0.612-0.36-1.056-1.08-1.056h-1.475v2.147H423.495z M423.65,221.895
			c0.792,0,1.235-0.516,1.235-1.235c0-0.708-0.455-1.224-1.235-1.224h-1.654v2.459H423.65z"/>
	</g>
	<g>
		<path d="M386.344,251.587c0.1,0.369,0.108,0.675,0.117,0.675h0.019c0,0,0.026-0.315,0.107-0.675l1.054-4.42h1.197l-1.647,6.392
			h-1.342l-0.981-3.781c-0.107-0.414-0.162-0.837-0.162-0.837h-0.018c0,0-0.054,0.423-0.162,0.837l-0.981,3.781h-1.341l-1.603-6.392
			h1.197l1.008,4.42c0.081,0.36,0.108,0.675,0.108,0.675h0.018c0.01,0,0.019-0.306,0.117-0.675l1.152-4.42h1.009L386.344,251.587z"
			/>
		<path d="M391.897,250.678h0.153v-0.063c0-0.603-0.378-0.81-0.883-0.81c-0.657,0-1.26,0.441-1.26,0.441l-0.433-0.819
			c0,0,0.711-0.567,1.801-0.567c1.206,0,1.908,0.666,1.908,1.827v2.872h-1.053v-0.378c0-0.18,0.018-0.324,0.018-0.324h-0.018
			c0.009,0-0.352,0.81-1.396,0.81c-0.819,0-1.558-0.513-1.558-1.431C389.178,250.777,391.15,250.678,391.897,250.678z
			 M391.024,252.776c0.603,0,1.035-0.648,1.035-1.207v-0.108h-0.198c-0.585,0-1.53,0.081-1.53,0.72
			C390.331,252.488,390.555,252.776,391.024,252.776z"/>
		<path d="M394.542,249.949h-0.594v-0.91h0.621v-1.323h1.116v1.323h1.044v0.91h-1.044v1.782c0,0.756,0.594,0.864,0.909,0.864
			c0.126,0,0.207-0.018,0.207-0.018v1c0,0-0.135,0.027-0.352,0.027c-0.639,0-1.908-0.189-1.908-1.729V249.949z"/>
		<path d="M399.745,248.86c1.323,0,2.035,0.963,2.035,2.179c0,0.135-0.027,0.441-0.027,0.441h-3.169
			c0.072,0.801,0.693,1.215,1.377,1.215c0.738,0,1.323-0.504,1.323-0.504l0.441,0.819c0,0-0.702,0.657-1.846,0.657
			c-1.521,0-2.467-1.098-2.467-2.404C397.413,249.85,398.376,248.86,399.745,248.86z M400.627,250.696
			c-0.019-0.621-0.405-0.955-0.91-0.955c-0.585,0-0.99,0.36-1.098,0.955H400.627z"/>
		<path d="M402.722,248.968h1.099v0.792c0,0.171-0.018,0.324-0.018,0.324h0.018c0.207-0.657,0.756-1.179,1.458-1.179
			c0.108,0,0.207,0.018,0.207,0.018v1.125c0,0-0.116-0.018-0.27-0.018c-0.486,0-1.035,0.279-1.251,0.963
			c-0.072,0.225-0.1,0.477-0.1,0.748v1.818h-1.144V248.968z"/>
	</g>
	<g>
		<path d="M305.883,239.403h1.161v2.71h2.926v-2.71h1.161v6.392h-1.161v-2.683h-2.926v2.683h-1.161V239.403z"/>
		<path d="M314.083,242.554l-1.908-3.151h1.323l0.873,1.567c0.207,0.369,0.405,0.783,0.405,0.783h0.018c0,0,0.181-0.405,0.388-0.783
			l0.891-1.567h1.333l-1.927,3.151l1.999,3.241h-1.306l-0.99-1.72c-0.207-0.369-0.396-0.756-0.396-0.756h-0.018
			c0,0-0.181,0.387-0.396,0.756l-0.981,1.72h-1.296L314.083,242.554z"/>
		<path d="M320.274,245.228c0-2.305,2.989-2.674,2.989-3.943c0-0.558-0.433-0.891-0.973-0.891c-0.747,0-1.152,0.756-1.152,0.756
			l-0.864-0.576c0,0,0.585-1.278,2.115-1.278c1.126,0,2.08,0.684,2.08,1.891c0,2.053-2.863,2.404-2.89,3.61h2.988v1h-4.24
			C320.301,245.588,320.274,245.408,320.274,245.228z"/>
		<path d="M325.494,245.228c0-2.305,2.989-2.674,2.989-3.943c0-0.558-0.433-0.891-0.973-0.891c-0.747,0-1.152,0.756-1.152,0.756
			l-0.864-0.576c0,0,0.585-1.278,2.115-1.278c1.126,0,2.08,0.684,2.08,1.891c0,2.053-2.863,2.404-2.89,3.61h2.988v1h-4.24
			C325.521,245.588,325.494,245.408,325.494,245.228z"/>
		<path d="M330.776,242.59c0-1.836,0.567-3.295,2.314-3.295c1.746,0,2.322,1.458,2.322,3.295c0,1.837-0.576,3.313-2.322,3.313
			C331.343,245.903,330.776,244.427,330.776,242.59z M334.215,242.59c0-1.242-0.252-2.224-1.125-2.224
			c-0.874,0-1.126,0.981-1.126,2.224c0,1.261,0.252,2.251,1.126,2.251C333.963,244.841,334.215,243.851,334.215,242.59z"/>
		<path d="M341.766,239.295c1.558,0,2.358,0.874,2.358,0.874l-0.558,0.864c0,0-0.729-0.675-1.747-0.675
			c-1.351,0-2.143,1.008-2.143,2.196c0,1.216,0.819,2.287,2.151,2.287c1.107,0,1.854-0.811,1.854-0.811l0.612,0.837
			c0,0-0.882,1.035-2.512,1.035c-1.953,0-3.304-1.449-3.304-3.331C338.48,240.718,339.884,239.295,341.766,239.295z"/>
	</g>
	<g>
		<path d="M142.257,184.789h2.368c1.287,0,2.188,0.576,2.188,1.684c0,0.54-0.261,1.089-0.747,1.369v0.018
			c0.738,0.225,1.008,0.882,1.008,1.45c0,1.404-1.17,1.917-2.448,1.917h-2.368V184.789z M144.643,187.283
			c0.396,0,0.567-0.288,0.567-0.594c0-0.297-0.171-0.549-0.594-0.549h-0.783v1.143H144.643z M144.778,189.875
			c0.459,0,0.684-0.315,0.684-0.675c0-0.36-0.216-0.657-0.675-0.657h-0.954v1.332H144.778z"/>
		<path d="M150.349,188.336h0.062v-0.081c0-0.387-0.297-0.513-0.684-0.513c-0.585,0-1.252,0.441-1.252,0.441l-0.54-1.098
			c0,0,0.802-0.604,1.945-0.604c1.305,0,2.088,0.711,2.088,1.891v2.854h-1.422v-0.279c0-0.153,0.018-0.288,0.018-0.288h-0.018
			c0,0-0.343,0.675-1.314,0.675c-0.864,0-1.576-0.576-1.576-1.494C147.656,188.489,149.628,188.336,150.349,188.336z
			 M149.664,190.146c0.405,0,0.766-0.441,0.766-0.819v-0.099h-0.145c-0.495,0-1.062,0.144-1.062,0.531
			C149.224,189.975,149.358,190.146,149.664,190.146z"/>
		<path d="M153.048,186.59h1.494v0.405c0,0.153-0.018,0.288-0.018,0.288h0.018c0.217-0.36,0.657-0.801,1.477-0.801
			c0.937,0,1.666,0.432,1.666,1.738v3.007h-1.558v-2.719c0-0.432-0.171-0.612-0.514-0.612c-0.485,0-0.783,0.27-0.918,0.666
			c-0.062,0.18-0.09,0.387-0.09,0.612v2.053h-1.558V186.59z"/>
		<path d="M158.771,184.789h1.558v3.331h0.441l0.918-1.53h1.692l-1.359,2.106v0.018l1.549,2.512h-1.773l-0.981-1.801h-0.486v1.801
			h-1.558V184.789z"/>
		<path d="M169.339,184.681c1.593,0,2.412,0.909,2.412,0.909l-0.729,1.188c0,0-0.721-0.657-1.612-0.657
			c-1.233,0-1.818,0.909-1.818,1.836c0,0.955,0.631,1.936,1.818,1.936c0.973,0,1.711-0.792,1.711-0.792l0.811,1.152
			c0,0-0.909,1.08-2.593,1.08c-2.017,0-3.376-1.431-3.376-3.34C165.963,186.122,167.403,184.681,169.339,184.681z"/>
	</g>
	<g>
		<path d="M142.14,256.47h2.368c1.287,0,2.188,0.576,2.188,1.684c0,0.54-0.261,1.089-0.747,1.369v0.018
			c0.738,0.225,1.008,0.882,1.008,1.45c0,1.404-1.17,1.917-2.448,1.917h-2.368V256.47z M144.525,258.964
			c0.396,0,0.567-0.288,0.567-0.594c0-0.297-0.171-0.549-0.594-0.549h-0.783v1.143H144.525z M144.661,261.557
			c0.459,0,0.684-0.315,0.684-0.675c0-0.36-0.216-0.657-0.675-0.657h-0.954v1.332H144.661z"/>
		<path d="M150.231,260.018h0.062v-0.081c0-0.387-0.297-0.513-0.684-0.513c-0.585,0-1.252,0.441-1.252,0.441l-0.54-1.098
			c0,0,0.802-0.604,1.945-0.604c1.305,0,2.088,0.711,2.088,1.891v2.854h-1.422v-0.279c0-0.153,0.018-0.288,0.018-0.288h-0.018
			c0,0-0.343,0.675-1.314,0.675c-0.864,0-1.576-0.576-1.576-1.494C147.539,260.17,149.511,260.018,150.231,260.018z
			 M149.547,261.827c0.405,0,0.766-0.441,0.766-0.819v-0.099h-0.145c-0.495,0-1.062,0.144-1.062,0.531
			C149.106,261.656,149.241,261.827,149.547,261.827z"/>
		<path d="M152.931,258.271h1.494v0.405c0,0.153-0.018,0.288-0.018,0.288h0.018c0.217-0.36,0.657-0.801,1.477-0.801
			c0.937,0,1.666,0.432,1.666,1.738v3.007h-1.558v-2.719c0-0.432-0.171-0.612-0.514-0.612c-0.485,0-0.783,0.27-0.918,0.666
			c-0.062,0.18-0.09,0.387-0.09,0.612v2.053h-1.558V258.271z"/>
		<path d="M158.654,256.47h1.558v3.331h0.441l0.918-1.53h1.692l-1.359,2.106v0.018l1.549,2.512h-1.773l-0.981-1.801h-0.486v1.801
			h-1.558V256.47z"/>
		<path d="M166.286,256.47h2.287c2.025,0,3.322,1.179,3.322,3.205c0,2.025-1.297,3.232-3.322,3.232h-2.287V256.47z M168.51,261.557
			c1.09,0,1.756-0.648,1.756-1.881c0-1.225-0.693-1.854-1.756-1.854h-0.647v3.736H168.51z"/>
	</g>
	<g>
		<path d="M305.78,311.807h1.161v2.71h2.926v-2.71h1.161v6.392h-1.161v-2.683h-2.926v2.683h-1.161V311.807z"/>
		<path d="M313.979,314.958l-1.908-3.151h1.323l0.873,1.567c0.207,0.369,0.405,0.783,0.405,0.783h0.018c0,0,0.181-0.405,0.388-0.783
			l0.891-1.567h1.333l-1.927,3.151l1.999,3.241h-1.306l-0.99-1.72c-0.207-0.369-0.396-0.756-0.396-0.756h-0.018
			c0,0-0.181,0.387-0.396,0.756l-0.981,1.72h-1.296L313.979,314.958z"/>
		<path d="M320.17,317.631c0-2.305,2.989-2.674,2.989-3.943c0-0.558-0.433-0.891-0.973-0.891c-0.747,0-1.152,0.756-1.152,0.756
			l-0.864-0.576c0,0,0.585-1.278,2.115-1.278c1.126,0,2.08,0.684,2.08,1.891c0,2.053-2.863,2.404-2.89,3.61h2.988v1h-4.24
			C320.198,317.992,320.17,317.812,320.17,317.631z"/>
		<path d="M325.39,317.631c0-2.305,2.989-2.674,2.989-3.943c0-0.558-0.433-0.891-0.973-0.891c-0.747,0-1.152,0.756-1.152,0.756
			l-0.864-0.576c0,0,0.585-1.278,2.115-1.278c1.126,0,2.08,0.684,2.08,1.891c0,2.053-2.863,2.404-2.89,3.61h2.988v1h-4.24
			C325.417,317.992,325.39,317.812,325.39,317.631z"/>
		<path d="M330.672,314.994c0-1.836,0.567-3.295,2.314-3.295c1.746,0,2.322,1.458,2.322,3.295c0,1.837-0.576,3.313-2.322,3.313
			C331.24,318.307,330.672,316.831,330.672,314.994z M334.112,314.994c0-1.242-0.252-2.224-1.125-2.224
			c-0.874,0-1.126,0.981-1.126,2.224c0,1.261,0.252,2.251,1.126,2.251C333.86,317.245,334.112,316.254,334.112,314.994z"/>
		<path d="M338.818,311.807h2.179c1.972,0,3.259,1.17,3.259,3.187s-1.287,3.205-3.259,3.205h-2.179V311.807z M340.933,317.199
			c1.297,0,2.125-0.765,2.125-2.206c0-1.422-0.847-2.188-2.125-2.188h-0.954v4.393H340.933z"/>
	</g>
	<g>
		<path d="M415.981,183.726c1.566,0,2.377,0.811,2.377,0.811l-0.576,0.864c0,0-0.685-0.612-1.701-0.612
			c-1.432,0-2.197,0.99-2.197,2.196c0,1.387,0.945,2.287,2.143,2.287c0.964,0,1.603-0.667,1.603-0.667v-0.747h-0.981v-1h2.026v3.367
			h-0.99v-0.306c0-0.135,0.009-0.27,0.009-0.27h-0.019c0,0-0.666,0.684-1.854,0.684c-1.684,0-3.133-1.305-3.133-3.313
			C412.686,185.167,414.082,183.726,415.981,183.726z"/>
		<path d="M422.11,187.345h0.153v-0.063c0-0.603-0.379-0.81-0.883-0.81c-0.657,0-1.26,0.441-1.26,0.441l-0.433-0.819
			c0,0,0.711-0.567,1.801-0.567c1.206,0,1.908,0.666,1.908,1.827v2.872h-1.053v-0.378c0-0.18,0.018-0.324,0.018-0.324h-0.018
			c0.009,0-0.352,0.81-1.396,0.81c-0.819,0-1.558-0.513-1.558-1.431C419.391,187.444,421.363,187.345,422.11,187.345z
			 M421.237,189.443c0.603,0,1.035-0.648,1.035-1.207v-0.108h-0.198c-0.585,0-1.53,0.081-1.53,0.72
			C420.543,189.155,420.768,189.443,421.237,189.443z"/>
		<path d="M424.719,188.858c0,0,0.504,0.504,1.251,0.504c0.324,0,0.604-0.144,0.604-0.414c0-0.684-2.233-0.594-2.233-2.071
			c0-0.855,0.766-1.35,1.756-1.35c1.035,0,1.539,0.522,1.539,0.522l-0.423,0.846c0,0-0.423-0.396-1.125-0.396
			c-0.297,0-0.585,0.126-0.585,0.414c0,0.648,2.232,0.567,2.232,2.043c0,0.766-0.666,1.377-1.756,1.377
			c-1.144,0-1.782-0.675-1.782-0.675L424.719,188.858z"/>
	</g>
	<g>
		<path d="M430.28,195.667h1.161v2.71h2.926v-2.71h1.161v6.392h-1.161v-2.683h-2.926v2.683h-1.161V195.667z"/>
		<path d="M437.147,195.667h2.467c1.197,0,2.034,0.837,2.034,2.08c0,1.243-0.837,2.107-2.034,2.107h-1.306v2.206h-1.161V195.667z
			 M439.397,198.846c0.676,0,1.071-0.432,1.071-1.099c0-0.657-0.396-1.08-1.053-1.08h-1.107v2.179H439.397z"/>
	</g>
	<g>
		<path d="M436.246,249.71h1.667l1.871,5.553c0.168,0.492,0.312,1.248,0.323,1.248h0.024c0.012,0,0.155-0.756,0.323-1.248
			l1.884-5.553h1.654l-3.105,8.515h-1.535L436.246,249.71z"/>
		<path d="M447.5,257.47c0-3.07,3.981-3.562,3.981-5.253c0-0.744-0.575-1.188-1.295-1.188c-0.995,0-1.535,1.008-1.535,1.008
			l-1.151-0.768c0,0,0.779-1.703,2.818-1.703c1.499,0,2.771,0.912,2.771,2.519c0,2.734-3.813,3.202-3.85,4.81h3.981v1.331h-5.648
			C447.537,257.95,447.5,257.71,447.5,257.47z"/>
		<path d="M454.46,257.47c0-3.07,3.981-3.562,3.981-5.253c0-0.744-0.575-1.188-1.295-1.188c-0.995,0-1.535,1.008-1.535,1.008
			l-1.151-0.768c0,0,0.779-1.703,2.818-1.703c1.499,0,2.771,0.912,2.771,2.519c0,2.734-3.813,3.202-3.85,4.81h3.981v1.331h-5.648
			C454.497,257.95,454.46,257.71,454.46,257.47z"/>
		<path d="M461.504,253.956c0-2.447,0.756-4.39,3.082-4.39c2.327,0,3.095,1.943,3.095,4.39c0,2.446-0.768,4.414-3.095,4.414
			C462.26,258.37,461.504,256.402,461.504,253.956z M466.085,253.956c0-1.655-0.335-2.962-1.499-2.962
			c-1.163,0-1.499,1.307-1.499,2.962c0,1.679,0.336,2.998,1.499,2.998C465.75,256.954,466.085,255.635,466.085,253.956z"/>
		<path d="M469.448,249.71h3.047c1.535,0,2.626,0.792,2.626,2.195c0,0.792-0.384,1.475-1.031,1.823v0.024
			c0.936,0.276,1.379,1.14,1.379,2.003c0,1.703-1.367,2.471-2.938,2.471h-3.083V249.71z M472.495,253.188
			c0.671,0,1.056-0.48,1.056-1.091c0-0.612-0.36-1.056-1.08-1.056h-1.475v2.147H472.495z M472.65,256.895
			c0.792,0,1.235-0.516,1.235-1.235c0-0.708-0.455-1.224-1.235-1.224h-1.654v2.459H472.65z"/>
	</g>
	<g>
		<path d="M435.344,286.587c0.1,0.369,0.108,0.675,0.117,0.675h0.019c0,0,0.026-0.315,0.107-0.675l1.054-4.42h1.197l-1.647,6.392
			h-1.342l-0.981-3.781c-0.107-0.414-0.162-0.837-0.162-0.837h-0.018c0,0-0.054,0.423-0.162,0.837l-0.981,3.781h-1.341l-1.603-6.392
			h1.197l1.008,4.42c0.081,0.36,0.108,0.675,0.108,0.675h0.018c0.01,0,0.019-0.306,0.117-0.675l1.152-4.42h1.009L435.344,286.587z"
			/>
		<path d="M440.897,285.678h0.153v-0.063c0-0.603-0.378-0.81-0.883-0.81c-0.657,0-1.26,0.441-1.26,0.441l-0.433-0.819
			c0,0,0.711-0.567,1.801-0.567c1.206,0,1.908,0.666,1.908,1.827v2.872h-1.053v-0.378c0-0.18,0.018-0.324,0.018-0.324h-0.018
			c0.009,0-0.352,0.81-1.396,0.81c-0.819,0-1.558-0.513-1.558-1.431C438.178,285.777,440.15,285.678,440.897,285.678z
			 M440.024,287.776c0.603,0,1.035-0.648,1.035-1.207v-0.108h-0.198c-0.585,0-1.53,0.081-1.53,0.72
			C439.331,287.488,439.555,287.776,440.024,287.776z"/>
		<path d="M443.542,284.949h-0.594v-0.91h0.621v-1.323h1.116v1.323h1.044v0.91h-1.044v1.782c0,0.756,0.594,0.864,0.909,0.864
			c0.126,0,0.207-0.018,0.207-0.018v1c0,0-0.135,0.027-0.352,0.027c-0.639,0-1.908-0.189-1.908-1.729V284.949z"/>
		<path d="M448.745,283.86c1.323,0,2.035,0.963,2.035,2.179c0,0.135-0.027,0.441-0.027,0.441h-3.169
			c0.072,0.801,0.693,1.215,1.377,1.215c0.738,0,1.323-0.504,1.323-0.504l0.441,0.819c0,0-0.702,0.657-1.846,0.657
			c-1.521,0-2.467-1.098-2.467-2.404C446.413,284.85,447.376,283.86,448.745,283.86z M449.627,285.696
			c-0.019-0.621-0.405-0.955-0.91-0.955c-0.585,0-0.99,0.36-1.098,0.955H449.627z"/>
		<path d="M451.722,283.968h1.099v0.792c0,0.171-0.018,0.324-0.018,0.324h0.018c0.207-0.657,0.756-1.179,1.458-1.179
			c0.108,0,0.207,0.018,0.207,0.018v1.125c0,0-0.116-0.018-0.27-0.018c-0.486,0-1.035,0.279-1.251,0.963
			c-0.072,0.225-0.1,0.477-0.1,0.748v1.818h-1.144V283.968z"/>
	</g>
	<g>
		<path d="M480.125,230.667h3.826v1h-2.665v1.674h2.151v1h-2.151v1.719h2.809v1h-3.97V230.667z"/>
		<path d="M485.3,230.667h2.467c1.197,0,2.034,0.837,2.034,2.08c0,1.243-0.837,2.107-2.034,2.107h-1.306v2.206H485.3V230.667z
			 M487.55,233.846c0.676,0,1.071-0.432,1.071-1.099c0-0.657-0.396-1.08-1.053-1.08h-1.107v2.179H487.55z"/>
	</g>
	<g>
		<path d="M485.246,284.71h1.667l1.871,5.553c0.168,0.492,0.312,1.248,0.323,1.248h0.024c0.012,0,0.155-0.756,0.323-1.248
			l1.884-5.553h1.654l-3.105,8.515h-1.535L485.246,284.71z"/>
		<path d="M496.5,292.47c0-3.07,3.981-3.562,3.981-5.253c0-0.744-0.575-1.188-1.295-1.188c-0.995,0-1.535,1.008-1.535,1.008
			l-1.151-0.768c0,0,0.779-1.703,2.818-1.703c1.499,0,2.771,0.912,2.771,2.519c0,2.734-3.813,3.202-3.85,4.81h3.981v1.331h-5.648
			C496.537,292.95,496.5,292.71,496.5,292.47z"/>
		<path d="M503.46,292.47c0-3.07,3.981-3.562,3.981-5.253c0-0.744-0.575-1.188-1.295-1.188c-0.995,0-1.535,1.008-1.535,1.008
			l-1.151-0.768c0,0,0.779-1.703,2.818-1.703c1.499,0,2.771,0.912,2.771,2.519c0,2.734-3.813,3.202-3.85,4.81h3.981v1.331h-5.648
			C503.497,292.95,503.46,292.71,503.46,292.47z"/>
		<path d="M510.504,288.956c0-2.447,0.756-4.39,3.082-4.39c2.327,0,3.095,1.943,3.095,4.39c0,2.446-0.768,4.414-3.095,4.414
			C511.26,293.37,510.504,291.402,510.504,288.956z M515.085,288.956c0-1.655-0.335-2.962-1.499-2.962
			c-1.163,0-1.499,1.307-1.499,2.962c0,1.679,0.336,2.998,1.499,2.998C514.75,291.954,515.085,290.635,515.085,288.956z"/>
		<path d="M518.448,284.71h3.047c1.535,0,2.626,0.792,2.626,2.195c0,0.792-0.384,1.475-1.031,1.823v0.024
			c0.936,0.276,1.379,1.14,1.379,2.003c0,1.703-1.367,2.471-2.938,2.471h-3.083V284.71z M521.495,288.188
			c0.671,0,1.056-0.48,1.056-1.091c0-0.612-0.36-1.056-1.08-1.056h-1.475v2.147H521.495z M521.65,291.895
			c0.792,0,1.235-0.516,1.235-1.235c0-0.708-0.455-1.224-1.235-1.224h-1.654v2.459H521.65z"/>
	</g>
	<g>
		<path d="M484.344,321.587c0.1,0.369,0.108,0.675,0.117,0.675h0.019c0,0,0.026-0.315,0.107-0.675l1.054-4.42h1.197l-1.647,6.392
			h-1.342l-0.981-3.781c-0.107-0.414-0.162-0.837-0.162-0.837h-0.018c0,0-0.054,0.423-0.162,0.837l-0.981,3.781h-1.341l-1.603-6.392
			h1.197l1.008,4.42c0.081,0.36,0.108,0.675,0.108,0.675h0.018c0.01,0,0.019-0.306,0.117-0.675l1.152-4.42h1.009L484.344,321.587z"
			/>
		<path d="M489.897,320.678h0.153v-0.063c0-0.603-0.378-0.81-0.883-0.81c-0.657,0-1.26,0.441-1.26,0.441l-0.433-0.819
			c0,0,0.711-0.567,1.801-0.567c1.206,0,1.908,0.666,1.908,1.827v2.872h-1.053v-0.378c0-0.18,0.018-0.324,0.018-0.324h-0.018
			c0.009,0-0.352,0.81-1.396,0.81c-0.819,0-1.558-0.513-1.558-1.431C487.178,320.777,489.15,320.678,489.897,320.678z
			 M489.024,322.776c0.603,0,1.035-0.648,1.035-1.207v-0.108h-0.198c-0.585,0-1.53,0.081-1.53,0.72
			C488.331,322.488,488.555,322.776,489.024,322.776z"/>
		<path d="M492.542,319.949h-0.594v-0.91h0.621v-1.323h1.116v1.323h1.044v0.91h-1.044v1.782c0,0.756,0.594,0.864,0.909,0.864
			c0.126,0,0.207-0.018,0.207-0.018v1c0,0-0.135,0.027-0.352,0.027c-0.639,0-1.908-0.189-1.908-1.729V319.949z"/>
		<path d="M497.745,318.86c1.323,0,2.035,0.963,2.035,2.179c0,0.135-0.027,0.441-0.027,0.441h-3.169
			c0.072,0.801,0.693,1.215,1.377,1.215c0.738,0,1.323-0.504,1.323-0.504l0.441,0.819c0,0-0.702,0.657-1.846,0.657
			c-1.521,0-2.467-1.098-2.467-2.404C495.413,319.85,496.376,318.86,497.745,318.86z M498.627,320.696
			c-0.019-0.621-0.405-0.955-0.91-0.955c-0.585,0-0.99,0.36-1.098,0.955H498.627z"/>
		<path d="M500.722,318.968h1.099v0.792c0,0.171-0.018,0.324-0.018,0.324h0.018c0.207-0.657,0.756-1.179,1.458-1.179
			c0.108,0,0.207,0.018,0.207,0.018v1.125c0,0-0.116-0.018-0.27-0.018c-0.486,0-1.035,0.279-1.251,0.963
			c-0.072,0.225-0.1,0.477-0.1,0.748v1.818h-1.144V318.968z"/>
	</g>
	<g>
		<path d="M559.212,317.167h1.161v5.393h2.764v1h-3.925V317.167z"/>
		<path d="M566.8,317.059c1.558,0,2.358,0.874,2.358,0.874l-0.558,0.864c0,0-0.729-0.675-1.747-0.675
			c-1.351,0-2.143,1.008-2.143,2.196c0,1.216,0.819,2.287,2.151,2.287c1.107,0,1.854-0.811,1.854-0.811l0.612,0.837
			c0,0-0.882,1.035-2.512,1.035c-1.953,0-3.304-1.449-3.304-3.331C563.514,318.481,564.918,317.059,566.8,317.059z"/>
		<path d="M569.58,317.167h1.251l1.404,4.168c0.126,0.369,0.234,0.936,0.243,0.936h0.019c0.009,0,0.117-0.567,0.243-0.936
			l1.413-4.168h1.242l-2.332,6.392h-1.152L569.58,317.167z"/>
		<path d="M578.022,322.992c0-2.305,2.989-2.674,2.989-3.943c0-0.558-0.433-0.891-0.973-0.891c-0.747,0-1.152,0.756-1.152,0.756
			l-0.864-0.576c0,0,0.585-1.278,2.115-1.278c1.126,0,2.08,0.684,2.08,1.891c0,2.053-2.863,2.404-2.89,3.61h2.988v1h-4.24
			C578.049,323.352,578.022,323.172,578.022,322.992z"/>
		<path d="M583.269,320.633c0-1.675,0.963-3.574,2.943-3.574c0.811,0,1.306,0.27,1.306,0.27l-0.342,1c0,0-0.405-0.198-0.9-0.198
			c-1.009,0-1.54,0.837-1.702,1.71h0.019c0.225-0.261,0.738-0.45,1.197-0.45c1.26,0,2.053,0.981,2.053,2.134
			c0,1.188-0.838,2.143-2.106,2.143C584.403,323.667,583.269,322.56,583.269,320.633z M586.69,321.524
			c0-0.648-0.405-1.179-1.171-1.179c-0.576,0-1.044,0.297-1.044,0.693c0,0.801,0.585,1.566,1.261,1.566
			C586.33,322.605,586.69,322.127,586.69,321.524z"/>
		<path d="M588.479,321.2l2.755-4.033h1.378v3.781h0.828v0.963h-0.828v1.647h-1.144v-1.647h-2.989V321.2z M591.468,320.948v-1.98
			c0-0.315,0.045-0.667,0.045-0.667h-0.019c0,0-0.144,0.342-0.314,0.585l-1.477,2.043v0.018H591.468z"/>
		<path d="M594.626,317.167h2.286c1.152,0,1.972,0.594,1.972,1.647c0,0.594-0.288,1.107-0.774,1.369v0.018
			c0.702,0.207,1.035,0.855,1.035,1.503c0,1.278-1.025,1.854-2.205,1.854h-2.313V317.167z M596.913,319.778
			c0.504,0,0.793-0.36,0.793-0.819c0-0.459-0.271-0.792-0.811-0.792h-1.107v1.611H596.913z M597.03,322.56
			c0.595,0,0.928-0.387,0.928-0.927c0-0.531-0.343-0.918-0.928-0.918h-1.242v1.845H597.03z"/>
	</g>
	<g>
		<path d="M513.981,253.726c1.566,0,2.377,0.811,2.377,0.811l-0.576,0.864c0,0-0.685-0.612-1.701-0.612
			c-1.432,0-2.197,0.99-2.197,2.196c0,1.387,0.945,2.287,2.143,2.287c0.964,0,1.603-0.667,1.603-0.667v-0.747h-0.981v-1h2.026v3.367
			h-0.99v-0.306c0-0.135,0.009-0.27,0.009-0.27h-0.019c0,0-0.666,0.684-1.854,0.684c-1.684,0-3.133-1.305-3.133-3.313
			C510.686,255.167,512.082,253.726,513.981,253.726z"/>
		<path d="M520.11,257.345h0.153v-0.063c0-0.603-0.379-0.81-0.883-0.81c-0.657,0-1.26,0.441-1.26,0.441l-0.433-0.819
			c0,0,0.711-0.567,1.801-0.567c1.206,0,1.908,0.666,1.908,1.827v2.872h-1.053v-0.378c0-0.18,0.018-0.324,0.018-0.324h-0.018
			c0.009,0-0.352,0.81-1.396,0.81c-0.819,0-1.558-0.513-1.558-1.431C517.391,257.444,519.363,257.345,520.11,257.345z
			 M519.237,259.443c0.603,0,1.035-0.648,1.035-1.207v-0.108h-0.198c-0.585,0-1.53,0.081-1.53,0.72
			C518.543,259.155,518.768,259.443,519.237,259.443z"/>
		<path d="M522.719,258.858c0,0,0.504,0.504,1.251,0.504c0.324,0,0.604-0.144,0.604-0.414c0-0.684-2.233-0.594-2.233-2.071
			c0-0.855,0.766-1.35,1.756-1.35c1.035,0,1.539,0.522,1.539,0.522l-0.423,0.846c0,0-0.423-0.396-1.125-0.396
			c-0.297,0-0.585,0.126-0.585,0.414c0,0.648,2.232,0.567,2.232,2.043c0,0.766-0.666,1.377-1.756,1.377
			c-1.144,0-1.782-0.675-1.782-0.675L522.719,258.858z"/>
	</g>
	<g>
		<path d="M529.288,265.667h1.161v5.393h2.764v1h-3.925V265.667z"/>
		<path d="M534.138,265.667h2.467c1.197,0,2.034,0.837,2.034,2.08c0,1.243-0.837,2.107-2.034,2.107h-1.306v2.206h-1.161V265.667z
			 M536.388,268.846c0.676,0,1.071-0.432,1.071-1.099c0-0.657-0.396-1.08-1.053-1.08h-1.107v2.179H536.388z"/>
	</g>
</g>
<g id="Devide">
	<polygon fill="#A7A9AC" points="555.217,169.837 555.217,169.837 555.217,174.961 555.217,174.961 555.217,176.469 
		561.565,172.399 555.217,168.329 	"/>
	<g>
		<g>
			
				<line fill="none" stroke="#A7A9AC" stroke-width="2" stroke-miterlimit="10" x1="73.396" y1="172.392" x2="75.396" y2="172.392"/>
			
				<line fill="none" stroke="#A7A9AC" stroke-width="2" stroke-miterlimit="10" stroke-dasharray="4.0153,4.0153" x1="79.411" y1="172.392" x2="551.21" y2="172.392"/>
			
				<line fill="none" stroke="#A7A9AC" stroke-width="2" stroke-miterlimit="10" x1="553.218" y1="172.392" x2="555.218" y2="172.392"/>
		</g>
	</g>
</g>
</svg>
